<svg version="1.1" id="Layer_1" xmlns="http://www.w3.org/2000/svg" xmlns:xlink="http://www.w3.org/1999/xlink" x="0px" y="0px"
	 width="100%" viewBox="0 0 431 285" enable-background="new 0 0 431 285" xml:space="preserve">
<path fill="#D00E42" opacity="1.000000" stroke="none" 
	d="
M151.000000,1.000001 
	C181.354233,1.000000 211.708450,1.000000 242.692627,1.330687 
	C245.041626,2.431251 246.718521,3.743809 248.486710,3.881190 
	C258.482025,4.657775 268.071136,6.729880 276.966125,11.547017 
	C279.727661,13.042543 282.540863,14.467421 285.422668,15.710881 
	C291.496887,18.331839 297.685333,20.719034 301.302948,26.842541 
	C303.489380,30.543549 306.069794,33.601357 311.021149,33.381916 
	C311.924835,33.341862 313.167358,34.378120 313.770905,35.251160 
	C316.682587,39.463001 319.404083,43.805798 322.253662,48.061531 
	C322.892029,49.014866 323.749634,49.828274 324.547943,50.666443 
	C328.240509,54.543335 332.368134,58.093159 335.541748,62.354580 
	C339.381500,67.510414 339.123535,74.892509 344.266479,79.571907 
	C344.949890,80.193726 344.556549,81.866676 345.007263,82.902550 
	C346.138947,85.503517 347.470703,88.017311 348.718262,90.567986 
	C351.788483,96.845154 354.860931,103.121262 357.910156,109.408623 
	C358.043488,109.683563 357.957947,110.065849 357.969910,110.398300 
	C358.620239,128.440643 359.503693,146.479843 359.749207,164.527695 
	C359.807648,168.820816 358.909576,174.085938 356.380005,177.245529 
	C351.822632,182.937943 352.360321,188.044098 354.533386,193.874481 
	C347.044952,193.891876 340.022156,193.853348 332.999512,193.372498 
	C333.484070,188.647522 332.723663,183.644836 334.701294,180.225952 
	C339.412994,172.080322 338.280273,163.091217 339.761139,154.575470 
	C342.415894,139.309006 340.092834,124.397438 335.653046,109.375145 
	C331.335724,94.767143 324.686768,81.643456 315.930084,69.592087 
	C310.101410,61.570404 303.322510,53.988598 295.867767,47.468964 
	C288.307648,40.857147 279.493286,35.639664 271.010498,30.147768 
	C268.585175,28.577553 265.414825,28.138412 262.563477,27.253616 
	C260.981476,26.762726 259.228973,26.679342 257.764740,25.973652 
	C246.863007,20.719604 235.055145,19.660934 223.314804,19.119699 
	C204.901413,18.270834 186.798767,20.413685 169.661789,27.808500 
	C162.455902,30.917927 155.329193,34.223202 148.274384,37.660824 
	C146.723511,38.416519 145.615036,40.096714 144.331726,41.380058 
	C143.165756,42.546055 142.253052,44.183056 140.861984,44.872452 
	C127.143021,51.671410 120.256058,65.280792 110.044975,75.560654 
	C109.702202,75.905731 109.452118,76.376167 109.257828,76.830513 
	C105.641968,85.286438 102.050606,93.752838 98.434929,102.208847 
	C92.912155,115.125038 91.149948,128.647369 92.011742,142.566910 
	C92.637947,152.681137 93.376259,162.788803 94.142502,172.893494 
	C94.227104,174.009247 94.493744,175.451492 95.236122,176.123077 
	C100.984909,181.323624 99.008766,187.627945 97.537987,193.876801 
	C90.938744,194.439453 84.379707,192.417770 78.671005,196.879425 
	C77.945473,196.522751 77.472153,196.263519 76.939102,195.894073 
	C76.584320,195.856125 76.289253,195.928375 75.793892,196.200241 
	C75.061180,196.934250 74.528770,197.468658 73.725060,197.809769 
	C71.627678,194.494507 68.915222,191.581833 68.120499,188.216309 
	C63.254326,167.608627 58.800667,146.901825 63.812912,125.583443 
	C64.037552,124.628006 63.854740,123.583679 64.004509,122.602554 
	C64.703354,118.024261 65.315102,113.425896 66.231606,108.889984 
	C66.846207,105.848274 67.967224,102.912163 68.775688,99.905693 
	C70.456528,93.655113 71.700180,87.254517 73.854332,81.174507 
	C75.421310,76.751747 78.097275,72.709213 80.400642,68.564880 
	C81.732727,66.168144 83.132805,63.770977 84.808441,61.611572 
	C88.019157,57.473934 91.550552,53.584431 94.743034,49.433640 
	C96.318436,47.385349 97.024010,44.559559 98.827721,42.813320 
	C109.053574,32.913292 117.848915,21.350222 131.076355,14.879858 
	C136.371536,12.289660 141.641998,9.589210 146.640701,6.483467 
	C148.508453,5.323020 149.570557,2.865896 151.000000,1.000001 
z"/>
<path fill="#D00A3F" opacity="1.000000" stroke="none" 
	d="
M150.531342,1.000001 
	C149.570557,2.865896 148.508453,5.323020 146.640701,6.483467 
	C141.641998,9.589210 136.371536,12.289660 131.076355,14.879858 
	C117.848915,21.350222 109.053574,32.913292 98.827721,42.813320 
	C97.024010,44.559559 96.318436,47.385349 94.743034,49.433640 
	C91.550552,53.584431 88.019157,57.473934 84.808441,61.611572 
	C83.132805,63.770977 81.732727,66.168144 80.400642,68.564880 
	C78.097275,72.709213 75.421310,76.751747 73.854332,81.174507 
	C71.700180,87.254517 70.456528,93.655113 68.775688,99.905693 
	C67.967224,102.912163 66.846207,105.848274 66.231606,108.889984 
	C65.315102,113.425896 64.703354,118.024261 64.004509,122.602554 
	C63.854740,123.583679 64.037552,124.628006 63.812912,125.583443 
	C58.800667,146.901825 63.254326,167.608627 68.120499,188.216309 
	C68.915222,191.581833 71.627678,194.494507 73.775185,198.077728 
	C74.169243,200.412491 74.066628,202.321564 74.434517,204.135208 
	C74.529594,204.603912 76.100899,204.773178 77.261917,205.003998 
	C78.263641,204.984711 78.997536,205.041458 79.937607,205.359467 
	C83.294884,208.096863 80.366096,210.282181 79.442307,212.663361 
	C78.032906,213.827744 76.244736,214.815842 76.094574,216.009918 
	C75.681992,219.290573 75.863876,222.660889 75.979385,225.989868 
	C76.204002,232.463364 79.994263,236.466766 86.515099,237.049759 
	C89.660583,237.330963 92.833336,237.307236 95.951866,237.743622 
	C96.781357,240.171127 97.165855,242.729614 98.620209,244.292633 
	C102.217346,248.158539 106.183769,251.710953 110.220238,255.131561 
	C117.943222,261.676300 122.914284,271.431976 133.389648,274.803314 
	C136.012573,275.647430 138.927460,276.707947 140.772232,278.587555 
	C143.658997,281.528870 146.652786,283.071747 150.768402,283.233643 
	C152.212967,283.290436 153.591385,285.029236 155.000000,286.000000 
	C135.312439,286.000000 115.624878,286.000000 95.351517,285.672180 
	C90.602249,280.487701 86.465073,275.607910 82.240044,270.805450 
	C81.745712,270.243530 80.647652,270.251373 80.037720,269.744476 
	C78.803757,268.718903 77.653427,267.574890 76.577072,266.381866 
	C75.074821,264.716766 73.789291,262.844269 72.206047,261.266174 
	C65.453377,254.535553 59.884060,247.351639 62.260262,236.698578 
	C71.206123,234.009720 72.328194,220.051651 65.960716,215.528809 
	C63.221367,213.583054 62.916138,211.599106 63.267979,208.511719 
	C64.382294,198.733826 59.882374,194.043137 49.900318,193.984528 
	C43.933990,193.949509 37.967869,193.879578 32.099678,193.433044 
	C32.372734,189.244812 32.992260,185.405090 32.623581,181.662720 
	C31.995785,175.290085 30.467005,169.007675 29.805977,162.636597 
	C26.547190,131.227982 30.813236,100.847588 42.667316,71.553833 
	C43.954041,68.374092 44.765415,64.922836 46.503788,62.020710 
	C50.755531,54.922649 55.897820,48.329063 59.808983,41.062702 
	C65.754555,30.016706 74.794289,21.873161 83.555191,13.333646 
	C87.395470,9.590405 90.539703,5.133075 94.000000,0.999998 
	C112.687561,1.000000 131.375122,1.000000 150.531342,1.000001 
z"/>
<path fill="#CF053C" opacity="1.000000" stroke="none" 
	d="
M93.531342,0.999998 
	C90.539703,5.133075 87.395470,9.590405 83.555191,13.333646 
	C74.794289,21.873161 65.754555,30.016706 59.808983,41.062702 
	C55.897820,48.329063 50.755531,54.922649 46.503788,62.020710 
	C44.765415,64.922836 43.954041,68.374092 42.667316,71.553833 
	C30.813236,100.847588 26.547190,131.227982 29.805977,162.636597 
	C30.467005,169.007675 31.995785,175.290085 32.623581,181.662720 
	C32.992260,185.405090 32.372734,189.244812 31.702099,193.493988 
	C29.811008,194.103424 28.415524,194.259628 26.734871,194.447754 
	C26.860268,196.634949 26.960131,198.376770 27.083241,200.524078 
	C34.358906,200.524078 41.156628,200.525757 47.954346,200.523605 
	C55.678139,200.521149 56.899696,201.250366 56.993130,205.930634 
	C57.101528,211.360550 55.223816,212.802765 48.046585,212.812576 
	C42.219845,212.820541 36.391323,212.923203 30.567173,212.805878 
	C27.852478,212.751205 26.629034,213.624390 26.699121,216.499176 
	C26.837038,222.156097 26.836119,227.820999 26.701927,233.478073 
	C26.634666,236.313614 27.764681,237.270172 30.528481,237.204300 
	C34.681519,237.105316 38.842037,237.320496 43.028500,237.763214 
	C45.590538,245.107834 48.033966,252.017059 53.441151,257.607208 
	C59.163044,263.522736 64.326126,269.986694 69.613251,276.311493 
	C72.215240,279.424164 74.546326,282.763336 77.000000,286.000000 
	C67.645767,286.000000 58.291542,286.000000 48.350578,285.670227 
	C46.409878,282.345337 45.180122,279.284576 43.647850,276.383606 
	C42.917061,275.000092 41.785744,273.690704 40.536579,272.741638 
	C34.226158,267.947235 30.671164,261.381500 27.972458,254.147202 
	C27.015574,251.582108 25.610325,249.164032 24.234848,246.779739 
	C21.782478,242.528748 18.952620,238.478058 16.744350,234.109222 
	C14.968734,230.596329 13.944558,226.710434 12.466410,223.038589 
	C10.717344,218.693802 7.685478,214.500214 7.303998,210.061111 
	C6.810435,204.317795 4.521418,200.047775 1.000000,196.000000 
	C1.000000,162.979111 1.000000,129.958206 1.330165,96.307854 
	C2.438034,93.623871 3.382596,91.614487 3.953502,89.504028 
	C4.766425,86.498917 5.029850,83.327454 6.013472,80.389603 
	C8.745415,72.229919 11.532052,64.077209 14.675367,56.070263 
	C17.084688,49.933018 19.339245,43.535088 22.952812,38.112926 
	C30.062706,27.444530 38.075756,17.378492 45.699768,7.051887 
	C47.169384,5.061319 48.568413,3.018640 50.000000,1.000000 
	C64.354225,1.000000 78.708458,1.000000 93.531342,0.999998 
z"/>
<path fill="#CF0C40" opacity="1.000000" stroke="none" 
	d="
M354.999023,193.818558 
	C352.360321,188.044098 351.822632,182.937943 356.380005,177.245529 
	C358.909576,174.085938 359.807648,168.820816 359.749207,164.527695 
	C359.503693,146.479843 358.620239,128.440643 357.969910,110.398300 
	C357.957947,110.065849 358.043488,109.683563 357.910156,109.408623 
	C354.860931,103.121262 351.788483,96.845154 348.718262,90.567986 
	C347.470703,88.017311 346.138947,85.503517 345.007263,82.902550 
	C344.556549,81.866676 344.949890,80.193726 344.266479,79.571907 
	C339.123535,74.892509 339.381500,67.510414 335.541748,62.354580 
	C332.368134,58.093159 328.240509,54.543335 324.547943,50.666443 
	C323.749634,49.828274 322.892029,49.014866 322.253662,48.061531 
	C319.404083,43.805798 316.682587,39.463001 313.770905,35.251160 
	C313.167358,34.378120 311.924835,33.341862 311.021149,33.381916 
	C306.069794,33.601357 303.489380,30.543549 301.302948,26.842541 
	C297.685333,20.719034 291.496887,18.331839 285.422668,15.710881 
	C282.540863,14.467421 279.727661,13.042543 276.966125,11.547017 
	C268.071136,6.729880 258.482025,4.657775 248.486710,3.881190 
	C246.718521,3.743809 245.041626,2.431251 243.161285,1.330687 
	C261.354218,1.000000 279.708466,1.000000 298.591675,1.357712 
	C300.417969,3.321961 301.446716,5.296338 303.058075,6.472608 
	C310.837585,12.151487 318.935242,17.402239 326.613831,23.209719 
	C336.233337,30.485128 342.297455,40.929642 349.401550,50.368134 
	C353.344269,55.606380 355.919830,61.855068 359.335175,67.513367 
	C363.750824,74.828896 369.423370,81.542709 369.299377,90.828445 
	C369.283325,92.031288 370.395935,93.211784 370.793884,94.463623 
	C373.415466,102.710411 377.842316,110.315910 377.209900,119.632469 
	C376.734253,126.640625 378.272888,133.772430 378.712006,140.861771 
	C378.905731,143.989029 378.740814,147.159454 378.480865,150.288849 
	C378.112152,154.727783 377.588440,159.158401 376.980774,163.571884 
	C376.035248,170.439285 375.013977,177.297348 373.923401,184.143204 
	C373.401825,187.417084 372.647430,190.653885 371.635498,194.045044 
	C364.653595,195.900253 362.770416,198.390289 363.713074,205.762161 
	C366.010376,204.531326 367.875153,203.480881 369.787109,202.524857 
	C371.197113,201.819839 372.644012,200.771942 374.117859,200.693634 
	C377.730957,200.501694 381.369171,200.782303 384.997131,201.311188 
	C384.841858,209.097076 384.694855,209.144638 377.276611,210.443604 
	C375.759399,210.709274 374.422638,212.005508 372.647034,212.791138 
	C369.438751,211.158600 367.548401,206.737137 363.159851,209.648346 
	C364.181061,216.298264 367.173920,218.515045 375.997314,219.570435 
	C374.993958,223.535385 373.988159,227.080734 372.519623,230.696472 
	C356.468353,230.785522 340.875824,230.610336 325.293427,230.929367 
	C319.933380,231.039108 320.634094,227.961380 320.465790,224.576172 
	C320.281921,220.879150 320.733429,218.697144 325.393219,218.897995 
	C333.792480,219.260025 342.218536,219.000305 352.202576,219.000305 
	C350.770447,216.164124 349.881805,214.404251 348.929260,212.407867 
	C347.910065,212.319946 346.954742,212.468582 345.560181,212.689728 
	C342.751129,212.705002 340.381378,212.647751 338.115601,212.284698 
	C339.813080,208.271271 341.406616,204.563629 343.455994,200.758209 
	C347.193512,200.619919 350.492920,200.760773 353.747314,200.441910 
	C354.907684,200.328217 356.913177,199.036743 356.870331,198.393646 
	C356.766418,196.833984 355.685974,195.339371 354.999023,193.818558 
z"/>
<path fill="#D00A3F" opacity="1.000000" stroke="none" 
	d="
M371.998505,193.907486 
	C372.647430,190.653885 373.401825,187.417084 373.923401,184.143204 
	C375.013977,177.297348 376.035248,170.439285 376.980774,163.571884 
	C377.588440,159.158401 378.112152,154.727783 378.480865,150.288849 
	C378.740814,147.159454 378.905731,143.989029 378.712006,140.861771 
	C378.272888,133.772430 376.734253,126.640625 377.209900,119.632469 
	C377.842316,110.315910 373.415466,102.710411 370.793884,94.463623 
	C370.395935,93.211784 369.283325,92.031288 369.299377,90.828445 
	C369.423370,81.542709 363.750824,74.828896 359.335175,67.513367 
	C355.919830,61.855068 353.344269,55.606380 349.401550,50.368134 
	C342.297455,40.929642 336.233337,30.485128 326.613831,23.209719 
	C318.935242,17.402239 310.837585,12.151487 303.058075,6.472608 
	C301.446716,5.296338 300.417969,3.321961 299.060333,1.357712 
	C312.020905,1.000000 325.041779,1.000000 338.589325,1.352410 
	C339.807098,3.006052 340.199097,4.650140 341.236115,5.555016 
	C350.684143,13.799142 358.703949,23.214561 365.373260,33.835499 
	C366.756012,36.037533 369.163666,37.596519 370.543427,39.799751 
	C373.768372,44.949432 376.682526,50.295383 379.668762,55.592182 
	C381.126434,58.177700 382.851105,60.702038 383.776459,63.480053 
	C385.804657,69.569153 386.914124,75.995209 391.971130,80.677444 
	C392.976379,81.608177 393.534821,83.229790 393.875702,84.635529 
	C395.943634,93.163559 397.907318,101.717094 399.870911,110.270142 
	C403.476044,125.973946 402.675018,141.983032 402.717468,157.883820 
	C402.731720,163.223145 401.122864,168.789200 399.208710,173.856018 
	C396.720123,180.443420 395.624176,186.924561 396.533997,193.873337 
	C388.045227,193.923813 380.021851,193.915649 371.998505,193.907486 
z"/>
<path fill="#CE053B" opacity="1.000000" stroke="none" 
	d="
M432.000000,95.000000 
	C432.000000,129.020889 432.000000,163.041794 431.699188,197.691467 
	C429.997223,200.497726 428.143005,202.511597 427.285736,204.885483 
	C425.266632,210.476379 424.231476,216.459534 421.878387,221.885056 
	C417.351318,232.323318 412.700012,242.773438 407.135986,252.676880 
	C402.046783,261.735046 395.685699,270.078674 389.883240,278.735962 
	C388.258850,281.159546 386.627899,283.578766 385.000000,286.000000 
	C380.310760,286.000000 375.621490,286.000000 370.555328,285.643860 
	C372.160522,282.137451 374.053101,278.925751 376.156281,275.858490 
	C377.554718,273.819031 379.384308,272.076263 380.794739,270.043732 
	C385.482330,263.288727 389.924835,256.359497 394.738281,249.697205 
	C398.441467,244.571609 398.540558,243.587967 394.001129,239.094604 
	C393.547791,238.645859 393.326996,237.962204 393.394470,237.299957 
	C401.032013,236.153610 403.965393,233.753021 405.356598,227.747086 
	C406.806610,221.487274 404.876007,217.117783 399.142029,212.922821 
	C401.313354,211.477768 403.342102,210.418732 405.223907,209.142914 
	C406.794434,208.078156 408.781250,207.060638 409.576691,205.506729 
	C417.899902,189.246964 417.869141,171.075348 420.760681,153.627228 
	C422.130463,145.361618 421.045135,136.680374 420.957855,128.188614 
	C420.937622,126.223373 420.546021,124.243851 420.160645,122.303604 
	C418.471588,113.799675 416.758698,105.300102 414.980896,96.814354 
	C413.896118,91.636414 412.886108,86.427856 411.455444,81.341934 
	C410.249786,77.055908 408.320160,72.977898 407.009369,68.716034 
	C405.229248,62.928246 405.004456,56.427711 398.838715,52.866909 
	C398.103180,52.442120 397.362274,51.174210 397.423309,50.356781 
	C397.930664,43.561237 394.419281,39.119747 389.235840,35.473343 
	C388.342102,34.844601 387.446411,33.677067 387.280090,32.641430 
	C385.940582,24.300173 378.876801,20.246239 374.096405,14.445836 
	C370.670258,10.288626 368.004852,5.504445 365.000000,0.999997 
	C371.687653,1.000000 378.375275,1.000000 385.646881,1.324673 
	C390.699158,7.979540 395.621643,14.042991 399.531799,20.700993 
	C405.753662,31.295235 412.053802,41.959839 416.919220,53.201324 
	C421.691650,64.227943 424.660461,76.030182 428.546204,87.449364 
	C429.433228,90.056152 430.835114,92.487755 432.000000,95.000000 
z"/>
<path fill="#D0073D" opacity="1.000000" stroke="none" 
	d="
M364.531342,0.999997 
	C368.004852,5.504445 370.670258,10.288626 374.096405,14.445836 
	C378.876801,20.246239 385.940582,24.300173 387.280090,32.641430 
	C387.446411,33.677067 388.342102,34.844601 389.235840,35.473343 
	C394.419281,39.119747 397.930664,43.561237 397.423309,50.356781 
	C397.362274,51.174210 398.103180,52.442120 398.838715,52.866909 
	C405.004456,56.427711 405.229248,62.928246 407.009369,68.716034 
	C408.320160,72.977898 410.249786,77.055908 411.455444,81.341934 
	C412.886108,86.427856 413.896118,91.636414 414.980896,96.814354 
	C416.758698,105.300102 418.471588,113.799675 420.160645,122.303604 
	C420.546021,124.243851 420.937622,126.223373 420.957855,128.188614 
	C421.045135,136.680374 422.130463,145.361618 420.760681,153.627228 
	C417.869141,171.075348 417.899902,189.246964 409.576691,205.506729 
	C408.781250,207.060638 406.794434,208.078156 405.223907,209.142914 
	C403.342102,210.418732 401.313354,211.477768 398.677338,212.902985 
	C389.671875,213.059113 381.337280,212.942902 373.002686,212.826691 
	C374.422638,212.005508 375.759399,210.709274 377.276611,210.443604 
	C384.694855,209.144638 384.841858,209.097076 385.457520,201.214813 
	C391.054016,200.644730 396.190796,200.653641 401.325745,200.561615 
	C406.403748,200.470612 407.027283,199.320190 404.749207,193.814697 
	C402.277924,193.814697 399.638641,193.814697 396.999390,193.814697 
	C395.624176,186.924561 396.720123,180.443420 399.208710,173.856018 
	C401.122864,168.789200 402.731720,163.223145 402.717468,157.883820 
	C402.675018,141.983032 403.476044,125.973946 399.870911,110.270142 
	C397.907318,101.717094 395.943634,93.163559 393.875702,84.635529 
	C393.534821,83.229790 392.976379,81.608177 391.971130,80.677444 
	C386.914124,75.995209 385.804657,69.569153 383.776459,63.480053 
	C382.851105,60.702038 381.126434,58.177700 379.668762,55.592182 
	C376.682526,50.295383 373.768372,44.949432 370.543427,39.799751 
	C369.163666,37.596519 366.756012,36.037533 365.373260,33.835499 
	C358.703949,23.214561 350.684143,13.799142 341.236115,5.555016 
	C340.199097,4.650140 339.807098,3.006052 339.057983,1.352410 
	C347.354218,1.000000 355.708466,1.000000 364.531342,0.999997 
z"/>
<path fill="#CF0D41" opacity="1.000000" stroke="none" 
	d="
M155.468658,286.000000 
	C153.591385,285.029236 152.212967,283.290436 150.768402,283.233643 
	C146.652786,283.071747 143.658997,281.528870 140.772232,278.587555 
	C138.927460,276.707947 136.012573,275.647430 133.389648,274.803314 
	C122.914284,271.431976 117.943222,261.676300 110.220238,255.131561 
	C106.183769,251.710953 102.217346,248.158539 98.620209,244.292633 
	C97.165855,242.729614 96.781357,240.171127 96.412155,237.665253 
	C102.138420,237.443069 107.362541,237.621277 112.938461,237.899170 
	C115.794685,239.121948 118.299088,240.245041 120.803497,241.368134 
	C120.483131,241.629776 120.162773,241.891418 119.842415,242.153061 
	C121.145409,243.717377 122.478508,246.644272 123.746315,246.616257 
	C130.119171,246.475403 133.570221,248.993530 133.276474,256.773468 
	C137.707458,252.980392 139.103745,255.646545 141.606125,258.111816 
	C146.338455,262.773926 150.953781,267.936584 158.267868,269.151886 
	C162.749512,269.896545 167.487640,270.607849 170.577850,274.885406 
	C171.323196,275.917145 173.144836,276.438965 174.557999,276.672913 
	C179.786057,277.538422 185.038025,278.700165 190.303070,278.825836 
	C213.805740,279.386749 237.312393,279.503967 260.716309,276.660004 
	C261.352356,276.582764 262.068726,276.372681 262.555145,275.983826 
	C266.355743,272.945312 270.047394,269.767426 273.905670,266.805725 
	C275.593750,265.509888 277.523468,264.467804 279.466217,263.578796 
	C282.543091,262.170837 285.791046,261.130402 288.841736,259.673157 
	C292.336670,258.003662 295.536255,255.604263 299.146973,254.312515 
	C306.207642,251.786499 313.404480,249.778061 312.970856,240.067383 
	C312.938721,239.346771 313.678375,238.591690 314.472443,237.899139 
	C321.925781,237.769211 328.965851,237.592773 336.000793,237.796738 
	C335.072968,240.583908 334.603119,243.313995 333.153412,245.344452 
	C324.438385,257.550537 311.064667,264.642670 300.379669,274.713104 
	C299.504272,275.538086 297.790710,275.402740 296.713165,276.096558 
	C292.184662,279.012451 286.002472,279.844025 284.000000,286.000000 
	C241.312439,286.000000 198.624878,286.000000 155.468658,286.000000 
z"/>
<path fill="#D00A3F" opacity="1.000000" stroke="none" 
	d="
M284.468658,286.000000 
	C286.002472,279.844025 292.184662,279.012451 296.713165,276.096558 
	C297.790710,275.402740 299.504272,275.538086 300.379669,274.713104 
	C311.064667,264.642670 324.438385,257.550537 333.153412,245.344452 
	C334.603119,243.313995 335.072968,240.583908 336.462830,237.717255 
	C349.954102,237.303802 362.978149,237.350235 375.989624,237.763107 
	C375.588135,239.551758 375.582672,241.270935 374.748291,242.348053 
	C369.286896,249.398605 363.875427,256.511139 358.002777,263.213623 
	C351.478882,270.659363 342.888519,276.354279 339.000000,286.000000 
	C320.979095,286.000000 302.958221,286.000000 284.468658,286.000000 
z"/>
<path fill="#CE0139" opacity="1.000000" stroke="none" 
	d="
M1.000000,196.468658 
	C4.521418,200.047775 6.810435,204.317795 7.303998,210.061111 
	C7.685478,214.500214 10.717344,218.693802 12.466410,223.038589 
	C13.944558,226.710434 14.968734,230.596329 16.744350,234.109222 
	C18.952620,238.478058 21.782478,242.528748 24.234848,246.779739 
	C25.610325,249.164032 27.015574,251.582108 27.972458,254.147202 
	C30.671164,261.381500 34.226158,267.947235 40.536579,272.741638 
	C41.785744,273.690704 42.917061,275.000092 43.647850,276.383606 
	C45.180122,279.284576 46.409878,282.345337 47.881920,285.670227 
	C32.383526,286.000000 16.767054,286.000000 1.000000,286.000000 
	C1.000000,256.312592 1.000000,226.624954 1.000000,196.468658 
z"/>
<path fill="#CE0139" opacity="1.000000" stroke="none" 
	d="
M49.531342,1.000000 
	C48.568413,3.018640 47.169384,5.061319 45.699768,7.051887 
	C38.075756,17.378492 30.062706,27.444530 22.952812,38.112926 
	C19.339245,43.535088 17.084688,49.933018 14.675367,56.070263 
	C11.532052,64.077209 8.745415,72.229919 6.013472,80.389603 
	C5.029850,83.327454 4.766425,86.498917 3.953502,89.504028 
	C3.382596,91.614487 2.438034,93.623871 1.330165,95.839195 
	C1.000000,64.429832 1.000000,32.859661 1.000000,1.000000 
	C17.019732,1.000000 33.041206,1.000000 49.531342,1.000000 
z"/>
<path fill="#CE0139" opacity="1.000000" stroke="none" 
	d="
M432.000000,94.531342 
	C430.835114,92.487755 429.433228,90.056152 428.546204,87.449364 
	C424.660461,76.030182 421.691650,64.227943 416.919220,53.201324 
	C412.053802,41.959839 405.753662,31.295235 399.531799,20.700993 
	C395.621643,14.042991 390.699158,7.979540 386.115417,1.324673 
	C401.285248,1.000000 416.570526,1.000000 432.000000,1.000000 
	C432.000000,32.020756 432.000000,63.041721 432.000000,94.531342 
z"/>
<path fill="#CE0139" opacity="1.000000" stroke="none" 
	d="
M385.468658,286.000000 
	C386.627899,283.578766 388.258850,281.159546 389.883240,278.735962 
	C395.685699,270.078674 402.046783,261.735046 407.135986,252.676880 
	C412.700012,242.773438 417.351318,232.323318 421.878387,221.885056 
	C424.231476,216.459534 425.266632,210.476379 427.285736,204.885483 
	C428.143005,202.511597 429.997223,200.497726 431.699188,198.160126 
	C432.000000,227.237961 432.000000,256.475922 432.000000,286.000000 
	C416.646942,286.000000 401.292145,286.000000 385.468658,286.000000 
z"/>
<path fill="#D0063C" opacity="1.000000" stroke="none" 
	d="
M339.468658,286.000000 
	C342.888519,276.354279 351.478882,270.659363 358.002777,263.213623 
	C363.875427,256.511139 369.286896,249.398605 374.748291,242.348053 
	C375.582672,241.270935 375.588135,239.551758 376.451355,237.686432 
	C382.283264,237.291397 387.640778,237.339478 392.998291,237.387573 
	C393.326996,237.962204 393.547791,238.645859 394.001129,239.094604 
	C398.540558,243.587967 398.441467,244.571609 394.738281,249.697205 
	C389.924835,256.359497 385.482330,263.288727 380.794739,270.043732 
	C379.384308,272.076263 377.554718,273.819031 376.156281,275.858490 
	C374.053101,278.925751 372.160522,282.137451 370.089203,285.643860 
	C359.979095,286.000000 349.958221,286.000000 339.468658,286.000000 
z"/>
<path fill="#D0063C" opacity="1.000000" stroke="none" 
	d="
M77.467941,286.000000 
	C74.546326,282.763336 72.215240,279.424164 69.613251,276.311493 
	C64.326126,269.986694 59.163044,263.522736 53.441151,257.607208 
	C48.033966,252.017059 45.590538,245.107834 43.491432,237.687073 
	C49.951435,237.139999 55.977631,237.030182 62.003826,236.920380 
	C59.884060,247.351639 65.453377,254.535553 72.206047,261.266174 
	C73.789291,262.844269 75.074821,264.716766 76.577072,266.381866 
	C77.653427,267.574890 78.803757,268.718903 80.037720,269.744476 
	C80.647652,270.251373 81.745712,270.243530 82.240044,270.805450 
	C86.465073,275.607910 90.602249,280.487701 94.882858,285.672180 
	C89.311958,286.000000 83.623917,286.000000 77.467941,286.000000 
z"/>
<path fill="#D11144" opacity="1.000000" stroke="none" 
	d="
M98.001289,193.817871 
	C99.008766,187.627945 100.984909,181.323624 95.236122,176.123077 
	C94.493744,175.451492 94.227104,174.009247 94.142502,172.893494 
	C93.376259,162.788803 92.637947,152.681137 92.011742,142.566910 
	C91.149948,128.647369 92.912155,115.125038 98.434929,102.208847 
	C102.050606,93.752838 105.641968,85.286438 109.257828,76.830513 
	C109.452118,76.376167 109.702202,75.905731 110.044975,75.560654 
	C120.256058,65.280792 127.143021,51.671410 140.861984,44.872452 
	C142.253052,44.183056 143.165756,42.546055 144.331726,41.380058 
	C145.615036,40.096714 146.723511,38.416519 148.274384,37.660824 
	C155.329193,34.223202 162.455902,30.917927 169.661789,27.808500 
	C186.798767,20.413685 204.901413,18.270834 223.314804,19.119699 
	C235.055145,19.660934 246.863007,20.719604 257.764740,25.973652 
	C259.228973,26.679342 260.981476,26.762726 262.563477,27.253616 
	C265.414825,28.138412 268.585175,28.577553 271.010498,30.147768 
	C279.493286,35.639664 288.307648,40.857147 295.867767,47.468964 
	C303.322510,53.988598 310.101410,61.570404 315.930084,69.592087 
	C324.686768,81.643456 331.335724,94.767143 335.653046,109.375145 
	C340.092834,124.397438 342.415894,139.309006 339.761139,154.575470 
	C338.280273,163.091217 339.412994,172.080322 334.701294,180.225952 
	C332.723663,183.644836 333.484070,188.647522 332.534424,193.430969 
	C325.978973,193.931763 319.888855,193.931763 313.829620,193.931763 
	C313.829620,196.018799 313.829620,197.510559 313.627197,199.188568 
	C314.234253,200.717728 315.043732,202.060638 315.553680,203.648010 
	C315.004822,205.506073 314.755463,207.119629 314.506134,208.733215 
	C316.302002,208.732193 318.097900,208.731186 319.908875,209.116211 
	C319.947174,210.532074 319.970398,211.561890 319.599304,212.671631 
	C317.416931,212.839859 315.628784,212.928162 313.833099,213.016861 
	C313.833099,215.852066 313.833099,218.425156 313.500916,221.053757 
	C311.502014,221.739365 309.835236,222.369431 308.107605,222.552505 
	C308.030457,213.968597 307.972382,205.831406 308.025299,197.694946 
	C308.039734,195.477844 307.810638,193.710098 304.905090,193.447708 
	C304.937347,190.345337 304.765900,187.560883 305.266205,184.902878 
	C305.888306,181.597687 307.144257,178.416901 307.972717,175.143494 
	C308.453827,173.242477 308.001526,170.780533 309.056580,169.405014 
	C313.945160,163.031570 312.471069,155.281998 313.210999,148.341080 
	C314.196106,139.099915 312.630951,129.566437 311.912628,120.177567 
	C311.717407,117.625832 311.018890,114.946297 309.875092,112.664421 
	C306.355255,105.642593 302.716095,98.661392 298.709656,91.909859 
	C296.321625,87.885628 293.273346,84.227135 290.297668,80.587532 
	C288.536255,78.433098 285.976837,76.882416 284.428467,74.614868 
	C282.527985,71.831665 280.637756,71.227577 277.654449,72.846169 
	C277.537384,72.017365 277.927063,71.285126 277.735535,70.768188 
	C273.564514,59.508556 265.072296,52.869061 254.097519,49.028786 
	C235.577866,42.548420 216.363464,41.515663 197.107269,43.191097 
	C179.522232,44.721115 161.928574,47.329918 152.631897,66.132263 
	C148.648315,69.729485 144.579941,72.872932 141.403656,76.747658 
	C137.569794,81.424545 134.446472,86.691452 131.118408,91.770348 
	C130.233902,93.120178 129.828568,94.775284 129.023163,96.187546 
	C127.510597,98.839844 126.379517,102.035194 124.156433,103.879959 
	C120.883110,106.596237 120.291679,109.327843 120.537964,113.400520 
	C120.839424,118.385788 119.897995,123.478790 119.177635,128.479645 
	C118.813057,131.010620 117.313759,133.404907 117.104332,135.925537 
	C116.747139,140.224823 117.020958,144.575073 116.996277,148.903732 
	C116.935730,159.519791 119.153603,169.505478 124.061752,179.047363 
	C126.409302,183.611206 127.397583,188.874222 128.596649,193.886841 
	C123.047318,194.181519 125.483871,197.521347 125.421303,200.132492 
	C126.843857,200.277542 127.981949,200.492035 129.120422,200.494019 
	C137.779541,200.509140 146.438995,200.437393 155.097809,200.485809 
	C160.506042,200.516052 161.910599,201.932709 161.965317,207.299988 
	C162.023026,212.961166 161.881638,218.625259 161.995377,224.284698 
	C162.089493,228.968430 159.874115,230.924057 155.299713,230.844803 
	C148.807175,230.732315 142.306030,230.649780 135.819214,230.869217 
	C132.519852,230.980804 131.321167,229.792465 131.424957,226.584000 
	C131.568054,222.160004 131.460815,217.727921 131.460815,213.214935 
	C128.831619,213.214935 126.937614,213.214935 124.879120,213.214935 
	C124.879120,217.387985 124.879120,221.192657 124.558205,224.905792 
	C121.627769,221.524689 118.721581,218.420853 116.507545,214.883759 
	C114.889908,212.299438 114.059006,209.155350 118.633636,207.960098 
	C118.936394,207.880981 118.762756,205.978577 118.843414,204.546677 
	C117.631416,197.361099 114.059021,194.187714 107.320389,193.974518 
	C104.215477,193.876282 101.107742,193.867310 98.001289,193.817871 
M224.790604,35.638908 
	C213.817627,33.789776 199.190964,35.723049 195.437378,40.125893 
	C210.880035,35.779476 226.126923,39.078197 241.391785,41.675571 
	C241.480743,41.051502 241.569702,40.427433 241.658661,39.803364 
	C236.320557,38.494255 230.982437,37.185150 224.790604,35.638908 
z"/>
<path fill="#1B1821" opacity="1.000000" stroke="none" 
	d="
M97.537987,193.876801 
	C101.107742,193.867310 104.215477,193.876282 107.320389,193.974518 
	C114.059021,194.187714 117.631416,197.361099 118.443466,204.535889 
	C115.889702,204.064850 113.772148,203.217896 111.646355,202.392120 
	C110.020340,201.760513 108.323845,200.502838 106.762024,200.646561 
	C97.656906,201.484390 87.709244,197.479477 79.731422,205.098206 
	C78.997536,205.041458 78.263641,204.984711 76.988297,204.772980 
	C77.272293,202.070938 78.097740,199.523895 78.923203,196.976837 
	C84.379707,192.417770 90.938744,194.439453 97.537987,193.876801 
z"/>
<path fill="#1B1821" opacity="1.000000" stroke="none" 
	d="
M313.829620,199.002319 
	C313.829620,197.510559 313.829620,196.018799 313.829620,193.931763 
	C319.888855,193.931763 325.978973,193.931763 332.534210,193.873291 
	C340.022156,193.853348 347.044952,193.891876 354.533386,193.874481 
	C355.685974,195.339371 356.766418,196.833984 356.870331,198.393646 
	C356.913177,199.036743 354.907684,200.328217 353.747314,200.441910 
	C350.492920,200.760773 347.193512,200.619919 342.997040,200.659821 
	C336.722626,200.725616 331.363037,200.791992 325.573822,200.760757 
	C323.096985,200.718994 321.049774,200.774857 318.638245,200.736847 
	C316.792480,200.096085 315.311066,199.549210 313.829620,199.002319 
z"/>
<path fill="#D00F42" opacity="1.000000" stroke="none" 
	d="
M78.670998,196.879425 
	C78.097740,199.523895 77.272293,202.070938 76.720459,204.848999 
	C76.100899,204.773178 74.529594,204.603912 74.434517,204.135208 
	C74.066628,202.321564 74.169243,200.412491 74.046478,198.270996 
	C74.528770,197.468658 75.061180,196.934250 76.045090,196.201096 
	C76.663994,196.002975 76.831413,196.003616 76.998825,196.004272 
	C77.472153,196.263519 77.945473,196.522751 78.670998,196.879425 
z"/>
<path fill="#D00A3F" opacity="1.000000" stroke="none" 
	d="
M76.939102,195.894073 
	C76.831413,196.003616 76.663994,196.002975 76.245384,196.001480 
	C76.289253,195.928375 76.584320,195.856125 76.939102,195.894073 
z"/>
<path fill="#D00F42" opacity="1.000000" stroke="none" 
	d="
M79.937607,205.359467 
	C87.709244,197.479477 97.656906,201.484390 106.762024,200.646561 
	C108.323845,200.502838 110.020340,201.760513 111.646355,202.392120 
	C113.772148,203.217896 115.889702,204.064850 118.410751,204.913452 
	C118.762756,205.978577 118.936394,207.880981 118.633636,207.960098 
	C114.059006,209.155350 114.889908,212.299438 116.507545,214.883759 
	C118.721581,218.420853 121.627769,221.524689 124.628845,225.363220 
	C125.020409,229.491684 125.020409,233.071182 125.020409,237.407974 
	C134.508331,237.407974 143.246704,237.407974 151.856049,237.716064 
	C149.212158,239.252411 146.697281,240.480652 143.368973,242.106155 
	C150.701355,247.195633 156.850494,253.576584 164.311676,256.142914 
	C175.245895,259.903839 185.914810,264.587036 198.012482,265.692444 
	C209.732315,266.763367 221.150940,267.271484 232.655060,265.307892 
	C238.505814,264.309235 244.182846,262.317535 250.022537,261.224121 
	C261.125580,259.145264 271.016724,254.119431 280.482422,248.424210 
	C286.756531,244.649261 292.167816,239.453842 298.108521,235.089111 
	C298.670380,234.676285 300.257324,235.658661 301.623291,236.278275 
	C302.583710,236.835602 303.289215,237.107956 304.060120,237.475403 
	C304.419647,237.507675 304.713715,237.444870 305.429657,237.284668 
	C306.567871,235.953033 307.779755,234.766815 307.904968,233.475266 
	C308.241089,230.007416 308.112518,226.494507 308.168488,222.999496 
	C309.835236,222.369431 311.502014,221.739365 313.563538,221.517578 
	C313.991943,227.234787 314.025574,232.543701 314.059204,237.852631 
	C313.678375,238.591690 312.938721,239.346771 312.970856,240.067383 
	C313.404480,249.778061 306.207642,251.786499 299.146973,254.312515 
	C295.536255,255.604263 292.336670,258.003662 288.841736,259.673157 
	C285.791046,261.130402 282.543091,262.170837 279.466217,263.578796 
	C277.523468,264.467804 275.593750,265.509888 273.905670,266.805725 
	C270.047394,269.767426 266.355743,272.945312 262.555145,275.983826 
	C262.068726,276.372681 261.352356,276.582764 260.716309,276.660004 
	C237.312393,279.503967 213.805740,279.386749 190.303070,278.825836 
	C185.038025,278.700165 179.786057,277.538422 174.557999,276.672913 
	C173.144836,276.438965 171.323196,275.917145 170.577850,274.885406 
	C167.487640,270.607849 162.749512,269.896545 158.267868,269.151886 
	C150.953781,267.936584 146.338455,262.773926 141.606125,258.111816 
	C139.103745,255.646545 137.707458,252.980392 133.276474,256.773468 
	C133.570221,248.993530 130.119171,246.475403 123.746315,246.616257 
	C122.478508,246.644272 121.145409,243.717377 119.842415,242.153061 
	C120.162773,241.891418 120.483131,241.629776 120.803497,241.368134 
	C118.299088,240.245041 115.794685,239.121948 112.991150,237.545319 
	C115.391006,234.174240 119.237045,231.927170 118.587471,225.523453 
	C115.977234,226.834656 113.950851,227.916061 111.869064,228.877487 
	C110.310303,229.597351 108.712883,230.583664 107.075165,230.710892 
	C103.453125,230.992233 99.794846,230.807663 96.151344,230.811859 
	C82.318779,230.827774 81.971794,232.006775 82.121384,217.131714 
	C82.136559,215.622711 80.617798,214.098297 79.810875,212.581024 
	C80.366096,210.282181 83.294884,208.096863 79.937607,205.359467 
z"/>
<path fill="#151920" opacity="1.000000" stroke="none" 
	d="
M62.260262,236.698578 
	C55.977631,237.030182 49.951435,237.139999 43.462311,237.325958 
	C38.842037,237.320496 34.681519,237.105316 30.528481,237.204300 
	C27.764681,237.270172 26.634666,236.313614 26.701927,233.478073 
	C26.836119,227.820999 26.837038,222.156097 26.699121,216.499176 
	C26.629034,213.624390 27.852478,212.751205 30.567173,212.805878 
	C36.391323,212.923203 42.219845,212.820541 48.046585,212.812576 
	C55.223816,212.802765 57.101528,211.360550 56.993130,205.930634 
	C56.899696,201.250366 55.678139,200.521149 47.954346,200.523605 
	C41.156628,200.525757 34.358906,200.524078 27.083241,200.524078 
	C26.960131,198.376770 26.860268,196.634949 26.734871,194.447754 
	C28.415524,194.259628 29.811008,194.103424 31.604073,193.886292 
	C37.967869,193.879578 43.933990,193.949509 49.900318,193.984528 
	C59.882374,194.043137 64.382294,198.733826 63.267979,208.511719 
	C62.916138,211.599106 63.221367,213.583054 65.960716,215.528809 
	C72.328194,220.051651 71.206123,234.009720 62.260262,236.698578 
M62.012745,229.409790 
	C64.530724,223.673203 63.481262,219.372467 59.100967,219.187317 
	C50.558083,218.826248 41.989143,219.081451 33.374886,219.081451 
	C33.374886,223.237976 33.374886,226.778336 33.374886,231.208328 
	C42.955326,230.774887 52.143154,230.359222 62.012745,229.409790 
z"/>
<path fill="#151920" opacity="1.000000" stroke="none" 
	d="
M79.442307,212.663361 
	C80.617798,214.098297 82.136559,215.622711 82.121384,217.131714 
	C81.971794,232.006775 82.318779,230.827774 96.151344,230.811859 
	C99.794846,230.807663 103.453125,230.992233 107.075165,230.710892 
	C108.712883,230.583664 110.310303,229.597351 111.869064,228.877487 
	C113.950851,227.916061 115.977234,226.834656 118.587471,225.523453 
	C119.237045,231.927170 115.391006,234.174240 112.639336,237.445618 
	C107.362541,237.621277 102.138420,237.443069 96.454025,237.343231 
	C92.833336,237.307236 89.660583,237.330963 86.515099,237.049759 
	C79.994263,236.466766 76.204002,232.463364 75.979385,225.989868 
	C75.863876,222.660889 75.681992,219.290573 76.094574,216.009918 
	C76.244736,214.815842 78.032906,213.827744 79.442307,212.663361 
z"/>
<path fill="#121920" opacity="1.000000" stroke="none" 
	d="
M314.472473,237.899139 
	C314.025574,232.543701 313.991943,227.234787 313.895691,221.462036 
	C313.833099,218.425156 313.833099,215.852066 313.833099,213.016861 
	C315.628784,212.928162 317.416931,212.839859 320.061523,212.751465 
	C326.615875,212.697769 332.313751,212.644135 338.011627,212.590485 
	C340.381378,212.647751 342.751129,212.705002 345.930054,212.767868 
	C347.490570,212.730453 348.241852,212.687424 348.993164,212.644409 
	C349.881805,214.404251 350.770447,216.164124 352.202576,219.000305 
	C342.218536,219.000305 333.792480,219.260025 325.393219,218.897995 
	C320.733429,218.697144 320.281921,220.879150 320.465790,224.576172 
	C320.634094,227.961380 319.933380,231.039108 325.293427,230.929367 
	C340.875824,230.610336 356.468353,230.785522 372.983093,230.777344 
	C380.572388,230.800552 387.235840,230.860107 393.898468,230.808594 
	C397.962219,230.777161 399.246490,228.386703 399.250031,224.592911 
	C399.253540,220.858612 397.800507,218.958267 393.976837,219.005997 
	C387.983185,219.080856 381.988892,219.105118 375.994873,219.150818 
	C367.173920,218.515045 364.181061,216.298264 363.159851,209.648346 
	C367.548401,206.737137 369.438751,211.158600 372.647034,212.791122 
	C381.337280,212.942902 389.671875,213.059113 398.471130,213.195160 
	C404.876007,217.117783 406.806610,221.487274 405.356598,227.747086 
	C403.965393,233.753021 401.032013,236.153610 393.394470,237.299957 
	C387.640778,237.339478 382.283264,237.291397 376.463989,237.319977 
	C362.978149,237.350235 349.954102,237.303802 336.467987,237.336853 
	C328.965851,237.592773 321.925781,237.769211 314.472473,237.899139 
z"/>
<path fill="#1B1821" opacity="1.000000" stroke="none" 
	d="
M396.533997,193.873337 
	C399.638641,193.814697 402.277924,193.814697 404.749207,193.814697 
	C407.027283,199.320190 406.403748,200.470612 401.325745,200.561615 
	C396.190796,200.653641 391.054016,200.644730 385.457672,200.776398 
	C381.369171,200.782303 377.730957,200.501694 374.117859,200.693634 
	C372.644012,200.771942 371.197113,201.819839 369.787109,202.524857 
	C367.875153,203.480881 366.010376,204.531326 363.713074,205.762161 
	C362.770416,198.390289 364.653595,195.900253 371.635498,194.045044 
	C380.021851,193.915649 388.045227,193.923813 396.533997,193.873337 
z"/>
<path fill="#C6083C" opacity="1.000000" stroke="none" 
	d="
M375.997314,219.570435 
	C381.988892,219.105118 387.983185,219.080856 393.976837,219.005997 
	C397.800507,218.958267 399.253540,220.858612 399.250031,224.592911 
	C399.246490,228.386703 397.962219,230.777161 393.898468,230.808594 
	C387.235840,230.860107 380.572388,230.800552 373.445801,230.706970 
	C373.988159,227.080734 374.993958,223.535385 375.997314,219.570435 
z"/>
<path fill="#D00F42" opacity="1.000000" stroke="none" 
	d="
M338.115601,212.284698 
	C332.313751,212.644135 326.615875,212.697769 320.455811,212.671570 
	C319.970398,211.561890 319.947174,210.532074 319.969299,208.913025 
	C320.014618,208.323792 320.286011,207.998138 320.615784,207.927521 
	C322.631500,205.524048 324.317474,203.191208 326.003448,200.858368 
	C331.363037,200.791992 336.722626,200.725616 342.541199,200.757614 
	C341.406616,204.563629 339.813080,208.271271 338.115601,212.284698 
z"/>
<path fill="#D00F42" opacity="1.000000" stroke="none" 
	d="
M348.929260,212.407867 
	C348.241852,212.687424 347.490570,212.730453 346.369354,212.695343 
	C346.954742,212.468582 347.910065,212.319946 348.929260,212.407867 
z"/>
<path fill="#131920" opacity="1.000000" stroke="none" 
	d="
M152.942337,66.002480 
	C161.928574,47.329918 179.522232,44.721115 197.107269,43.191097 
	C216.363464,41.515663 235.577866,42.548420 254.097519,49.028786 
	C265.072296,52.869061 273.564514,59.508556 277.735535,70.768188 
	C277.927063,71.285126 277.537384,72.017365 277.717163,73.092209 
	C278.066925,73.696518 278.117889,73.857956 277.988800,74.351196 
	C277.510986,76.123207 277.213196,77.563423 276.710114,79.281967 
	C272.909668,90.632439 263.107941,94.322609 252.621613,98.740791 
	C270.880768,103.223618 282.230865,112.326195 280.068237,132.359070 
	C277.693115,141.049820 272.761261,147.267654 264.951935,150.946533 
	C261.060883,152.779572 256.911560,154.064362 252.449814,155.636551 
	C249.439453,156.054077 246.861328,156.737076 244.276794,156.762222 
	C223.185226,156.967453 202.092468,157.049820 180.546494,157.107513 
	C177.437042,157.019272 174.764450,157.148560 172.136108,156.866089 
	C171.408508,156.787888 170.812439,155.485764 170.156021,154.745178 
	C170.807953,154.177139 171.383301,153.292068 172.128952,153.111923 
	C173.393570,152.806412 174.770737,153.004028 176.091690,152.888412 
	C184.396545,152.161606 186.968338,149.692337 187.027039,141.275909 
	C187.148590,123.850449 186.981628,106.422981 187.009583,88.533646 
	C187.079666,82.571983 187.165466,77.070892 187.037994,71.574753 
	C186.936859,67.214050 185.479050,63.827400 180.485092,62.924446 
	C179.412445,62.730495 178.596527,61.116665 177.662338,60.156902 
	C177.972900,59.720032 178.283463,59.283157 178.594025,58.846283 
	C182.900681,58.846283 187.214600,59.005932 191.512390,58.810616 
	C198.809341,58.478996 206.143616,58.436340 212.395950,53.500195 
	C215.035110,51.416615 217.300659,52.963570 217.390289,56.751137 
	C217.540115,63.080849 217.441635,69.416489 217.443863,75.749634 
	C217.446289,82.709709 217.444412,89.669785 217.444412,98.152702 
	C224.736374,97.037521 231.854324,97.462883 237.449066,94.748596 
	C246.484100,90.365250 248.372192,81.078583 248.237900,71.645851 
	C248.107224,62.467052 244.783752,54.703026 235.946854,51.080578 
	C230.200104,48.724850 223.863342,47.170540 217.675385,46.661362 
	C204.676254,45.591732 191.601578,45.977261 179.617416,52.077888 
	C171.080948,56.423447 169.766037,64.439201 176.488129,71.305733 
	C179.396225,74.276314 179.435959,76.854218 178.100372,80.197128 
	C177.622498,81.393211 177.501877,82.732033 177.069809,84.249420 
	C176.617630,84.714920 176.313858,84.936707 175.768997,85.147491 
	C175.201553,85.273705 175.008575,85.516800 174.669861,85.923553 
	C173.876694,86.181625 173.362686,86.381920 172.451752,86.713333 
	C161.863907,90.182114 157.239349,88.158104 153.057739,78.565659 
	C152.995773,74.104965 152.969055,70.053726 152.942337,66.002480 
M232.223312,152.991776 
	C240.621628,152.869415 245.775681,148.112701 248.863708,140.872070 
	C252.771545,131.709259 252.546707,122.354073 248.778076,113.227982 
	C246.253571,107.114677 242.052399,102.257515 235.022278,101.603439 
	C229.467514,101.086632 223.826279,101.499504 217.854416,101.499504 
	C217.705612,103.146759 217.464798,104.595299 217.461304,106.044411 
	C217.434433,117.179855 217.355148,128.316559 217.484940,139.450638 
	C217.628540,151.767685 218.992722,153.013367 232.223312,152.991776 
z"/>
<path fill="#D11547" opacity="1.000000" stroke="none" 
	d="
M280.193756,132.005478 
	C282.230865,112.326195 270.880768,103.223618 252.621613,98.740791 
	C263.107941,94.322609 272.909668,90.632439 277.022522,79.198547 
	C280.546753,77.595993 279.761078,75.860321 278.168854,74.019394 
	C278.117889,73.857956 278.066925,73.696518 277.953247,73.289047 
	C280.637756,71.227577 282.527985,71.831665 284.428467,74.614868 
	C285.976837,76.882416 288.536255,78.433098 290.297668,80.587532 
	C293.273346,84.227135 296.321625,87.885628 298.709656,91.909859 
	C302.716095,98.661392 306.355255,105.642593 309.875092,112.664421 
	C311.018890,114.946297 311.717407,117.625832 311.912628,120.177567 
	C312.630951,129.566437 314.196106,139.099915 313.210999,148.341080 
	C312.471069,155.281998 313.945160,163.031570 309.056580,169.405014 
	C308.001526,170.780533 308.453827,173.242477 307.972717,175.143494 
	C307.144257,178.416901 305.888306,181.597687 305.266205,184.902878 
	C304.765900,187.560883 304.937347,190.345337 304.528015,193.512085 
	C302.452332,194.921860 300.330078,195.556259 298.927368,196.927002 
	C294.472260,201.280533 290.285370,205.908585 285.737610,210.701660 
	C282.342743,206.803513 278.704529,203.816437 276.665527,199.979507 
	C274.186554,195.314651 270.829895,193.669479 266.024780,193.455994 
	C267.415039,190.108185 268.452087,186.924026 270.206818,184.202637 
	C274.930725,176.876343 281.570404,170.621582 281.883453,161.002411 
	C281.995697,157.553391 283.634644,154.067245 283.332001,150.710251 
	C282.766052,144.432053 281.290741,138.235809 280.193756,132.005478 
M280.613403,85.569473 
	C280.242615,84.981133 279.871826,84.392792 279.501007,83.804451 
	C279.139618,83.893845 278.778229,83.983238 278.416840,84.072624 
	C278.996368,93.189888 279.575897,102.307152 280.155426,111.424408 
	C281.034943,111.365501 281.914490,111.306595 282.794006,111.247688 
	C282.142700,102.923744 281.491425,94.599800 280.613403,85.569473 
z"/>
<path fill="#D21346" opacity="1.000000" stroke="none" 
	d="
M152.631897,66.132263 
	C152.969055,70.053726 152.995773,74.104965 152.740280,78.688629 
	C144.634171,84.522911 144.518311,85.186806 150.614868,90.265747 
	C150.342850,92.766624 150.054077,94.881203 149.503555,97.069412 
	C146.708344,98.503975 147.809097,99.313896 149.732727,100.337158 
	C149.754669,101.109596 149.720047,101.552521 149.358124,102.094429 
	C143.775452,103.849503 140.632339,107.097824 138.683090,112.557495 
	C135.038162,122.766655 131.238129,132.675003 131.876022,143.908661 
	C132.625076,157.100357 136.110962,169.529617 140.484848,181.818298 
	C140.795349,182.690674 141.591049,183.914200 142.315170,184.032608 
	C148.076691,184.974838 148.090378,189.679581 148.533157,193.892090 
	C141.712860,193.909729 135.357178,193.865143 129.001511,193.820557 
	C127.397583,188.874222 126.409302,183.611206 124.061752,179.047363 
	C119.153603,169.505478 116.935730,159.519791 116.996277,148.903732 
	C117.020958,144.575073 116.747139,140.224823 117.104332,135.925537 
	C117.313759,133.404907 118.813057,131.010620 119.177635,128.479645 
	C119.897995,123.478790 120.839424,118.385788 120.537964,113.400520 
	C120.291679,109.327843 120.883110,106.596237 124.156433,103.879959 
	C126.379517,102.035194 127.510597,98.839844 129.023163,96.187546 
	C129.828568,94.775284 130.233902,93.120178 131.118408,91.770348 
	C134.446472,86.691452 137.569794,81.424545 141.403656,76.747658 
	C144.579941,72.872932 148.648315,69.729485 152.631897,66.132263 
z"/>
<path fill="#131920" opacity="1.000000" stroke="none" 
	d="
M128.596649,193.886826 
	C135.357178,193.865143 141.712860,193.909729 148.988052,193.954407 
	C154.607239,194.587036 159.306885,195.219574 164.325531,196.020920 
	C165.937363,199.466644 167.230209,202.743576 168.419846,206.477570 
	C168.280670,213.225845 168.353714,219.520081 168.179123,225.807434 
	C167.991119,232.578369 164.208282,236.443802 157.425095,237.081238 
	C155.617493,237.251099 153.798706,237.302292 151.985062,237.407974 
	C143.246704,237.407974 134.508331,237.407974 125.020409,237.407974 
	C125.020409,233.071182 125.020409,229.491684 124.949768,225.454758 
	C124.879120,221.192657 124.879120,217.387985 124.879120,213.214935 
	C126.937614,213.214935 128.831619,213.214935 131.460815,213.214935 
	C131.460815,217.727921 131.568054,222.160004 131.424957,226.584000 
	C131.321167,229.792465 132.519852,230.980804 135.819214,230.869217 
	C142.306030,230.649780 148.807175,230.732315 155.299713,230.844803 
	C159.874115,230.924057 162.089493,228.968430 161.995377,224.284698 
	C161.881638,218.625259 162.023026,212.961166 161.965317,207.299988 
	C161.910599,201.932709 160.506042,200.516052 155.097809,200.485809 
	C146.438995,200.437393 137.779541,200.509140 129.120422,200.494019 
	C127.981949,200.492035 126.843857,200.277542 125.421303,200.132492 
	C125.483871,197.521347 123.047318,194.181519 128.596649,193.886826 
z"/>
<path fill="#141920" opacity="1.000000" stroke="none" 
	d="
M265.998840,193.830688 
	C270.829895,193.669479 274.186554,195.314651 276.665527,199.979507 
	C278.704529,203.816437 282.342743,206.803513 285.737610,210.701660 
	C290.285370,205.908585 294.472260,201.280533 298.927368,196.927002 
	C300.330078,195.556259 302.452332,194.921860 304.622314,193.886108 
	C307.810638,193.710098 308.039734,195.477844 308.025299,197.694946 
	C307.972382,205.831406 308.030457,213.968597 308.107605,222.552505 
	C308.112518,226.494507 308.241089,230.007416 307.904968,233.475266 
	C307.779755,234.766815 306.567871,235.953033 305.176453,237.235138 
	C304.332520,237.315445 304.163635,237.347885 303.994720,237.380325 
	C303.289215,237.107956 302.583710,236.835602 301.737366,235.822693 
	C301.596527,225.094635 301.596527,215.107117 301.596527,204.469788 
	C295.818695,210.052399 290.827972,214.874512 285.666962,219.861145 
	C282.743164,216.728989 279.939270,213.725266 277.018921,210.416763 
	C274.998657,207.991211 273.094849,205.870422 271.098450,203.788666 
	C271.005890,203.827682 271.083832,204.012894 271.041443,203.714478 
	C270.664825,203.248337 270.330627,203.080597 270.143066,202.939163 
	C270.289734,202.965469 270.342468,202.672180 270.210999,202.365097 
	C268.327881,199.981903 266.521484,197.946564 264.901642,195.772202 
	C264.722107,195.531235 265.607391,194.497009 265.998840,193.830688 
z"/>
<path fill="#231823" opacity="1.000000" stroke="none" 
	d="
M225.217468,35.757477 
	C230.982437,37.185150 236.320557,38.494255 241.658661,39.803364 
	C241.569702,40.427433 241.480743,41.051502 241.391785,41.675571 
	C226.126923,39.078197 210.880035,35.779476 195.437378,40.125893 
	C199.190964,35.723049 213.817627,33.789776 225.217468,35.757477 
z"/>
<path fill="#231823" opacity="1.000000" stroke="none" 
	d="
M320.286011,207.998138 
	C320.286011,207.998138 320.014618,208.323792 319.954193,208.526978 
	C318.097900,208.731186 316.302002,208.732193 314.506134,208.733215 
	C314.755463,207.119629 315.004822,205.506073 315.848755,203.571869 
	C317.247528,203.330429 318.051727,203.409622 319.079651,203.760437 
	C319.630951,205.354080 319.958496,206.676102 320.286011,207.998138 
z"/>
<path fill="#D00F42" opacity="1.000000" stroke="none" 
	d="
M318.855896,203.488815 
	C318.051727,203.409622 317.247528,203.330429 316.148285,203.327393 
	C315.043732,202.060638 314.234253,200.717728 313.627197,199.188568 
	C315.311066,199.549210 316.792480,200.096085 318.614868,201.179810 
	C318.922516,202.307373 318.889221,202.898087 318.855896,203.488815 
z"/>
<path fill="#D11144" opacity="1.000000" stroke="none" 
	d="
M319.079651,203.760437 
	C318.889221,202.898087 318.922516,202.307373 318.979187,201.273682 
	C321.049774,200.774857 323.096985,200.718994 325.573822,200.760757 
	C324.317474,203.191208 322.631500,205.524048 320.615784,207.927521 
	C319.958496,206.676102 319.630951,205.354080 319.079651,203.760437 
z"/>
<path fill="#CF1244" opacity="1.000000" stroke="none" 
	d="
M277.135376,210.721527 
	C279.939270,213.725266 282.743164,216.728989 285.666962,219.861145 
	C290.827972,214.874512 295.818695,210.052399 301.596527,204.469788 
	C301.596527,215.107117 301.596527,225.094635 301.482452,235.537720 
	C300.257324,235.658661 298.670380,234.676285 298.108521,235.089111 
	C292.167816,239.453842 286.756531,244.649261 280.482422,248.424210 
	C271.016724,254.119431 261.125580,259.145264 250.022537,261.224121 
	C244.182846,262.317535 238.505814,264.309235 232.655060,265.307892 
	C221.150940,267.271484 209.732315,266.763367 198.012482,265.692444 
	C185.914810,264.587036 175.245895,259.903839 164.311676,256.142914 
	C156.850494,253.576584 150.701355,247.195633 143.368973,242.106155 
	C146.697281,240.480652 149.212158,239.252411 151.856049,237.716064 
	C153.798706,237.302292 155.617493,237.251099 157.425095,237.081238 
	C164.208282,236.443802 167.991119,232.578369 168.179123,225.807434 
	C168.353714,219.520081 168.280670,213.225845 168.639725,206.691101 
	C172.074860,210.021530 174.547348,214.420898 180.212250,215.265472 
	C182.958939,221.333694 185.804153,227.012650 187.897598,232.956390 
	C189.480087,237.449509 192.071167,237.757416 196.332855,236.423065 
	C193.877548,230.539825 191.543213,224.946457 189.578186,219.384964 
	C193.133438,219.277542 196.319382,219.138260 199.590317,219.450394 
	C199.700684,221.063858 199.740356,222.225800 199.749237,223.387970 
	C199.827072,233.583740 203.348007,237.119827 213.583038,237.147232 
	C219.060791,237.161911 224.538849,237.057022 230.189667,236.906555 
	C230.325104,236.202225 230.287643,235.597412 230.188858,234.664062 
	C230.165512,233.893433 230.203476,233.451324 230.541824,232.946838 
	C232.605927,233.255722 234.369629,233.626984 236.225281,234.328583 
	C236.290176,235.340546 236.263138,236.022171 235.966736,236.889191 
	C235.131577,237.716400 234.565796,238.358215 233.979218,239.013596 
	C233.958420,239.027176 234.000000,239.000000 234.274246,238.829987 
	C235.125259,238.026093 235.702026,237.392227 236.664368,236.859985 
	C238.369812,237.095535 239.689713,237.229477 241.140137,237.501648 
	C241.830780,237.383087 242.390915,237.126282 242.942276,236.481323 
	C242.990768,235.062225 243.048065,234.031250 243.364456,232.809525 
	C245.336365,231.411942 247.049164,230.205124 248.827362,229.443344 
	C248.892776,232.157242 248.892776,234.426102 248.892776,236.703629 
	C251.337799,236.703629 253.042068,236.703629 255.304657,236.703629 
	C255.304657,226.088882 255.304657,215.883453 255.304657,204.850174 
	C256.669189,205.903259 257.375854,206.280090 257.859619,206.847107 
	C265.740540,216.084244 273.854156,225.141556 281.323090,234.702103 
	C284.287903,238.497192 287.145294,238.318375 291.833588,237.271118 
	C282.860504,226.481918 274.406525,216.316895 266.011292,205.865646 
	C267.494141,204.610321 268.918304,203.641251 270.342468,202.672180 
	C270.342468,202.672180 270.289734,202.965469 270.339905,203.108673 
	C270.621368,203.505554 270.852600,203.759216 271.083832,204.012894 
	C271.083832,204.012894 271.005890,203.827682 271.076233,204.194061 
	C271.683807,210.583252 273.187714,212.130432 277.135376,210.721527 
M260.762115,219.192871 
	C260.073547,220.611725 259.130249,221.985153 258.863861,223.479279 
	C258.791290,223.886093 260.817047,225.208420 261.771057,225.105255 
	C262.732697,225.001282 264.443268,223.261215 264.289429,222.909027 
	C263.675812,221.504120 262.463440,220.360733 260.762115,219.192871 
z"/>
<path fill="#CF1244" opacity="1.000000" stroke="none" 
	d="
M304.060120,237.475403 
	C304.163635,237.347885 304.332520,237.315445 304.754608,237.332520 
	C304.713715,237.444870 304.419647,237.507675 304.060120,237.475403 
z"/>
<path fill="#CB083D" opacity="1.000000" stroke="none" 
	d="
M61.671864,229.676666 
	C52.143154,230.359222 42.955326,230.774887 33.374886,231.208328 
	C33.374886,226.778336 33.374886,223.237976 33.374886,219.081451 
	C41.989143,219.081451 50.558083,218.826248 59.100967,219.187317 
	C63.481262,219.372467 64.530724,223.673203 61.671864,229.676666 
z"/>
<path fill="#D2184A" opacity="1.000000" stroke="none" 
	d="
M270.210999,202.365082 
	C268.918304,203.641251 267.494141,204.610321 265.715027,205.698456 
	C262.988800,203.032791 260.440277,200.377106 258.293640,197.428864 
	C255.917175,194.164978 253.100281,193.151260 249.169449,194.566833 
	C249.028656,196.394562 248.890182,198.192444 248.497314,200.054504 
	C245.900879,200.363281 244.149063,196.061081 241.193176,199.011337 
	C238.390030,195.289886 234.915497,193.881287 230.609009,193.963898 
	C224.305222,194.084839 217.996780,193.938782 211.691513,194.010925 
	C203.828781,194.100876 199.927979,198.057495 199.717941,206.069946 
	C199.604980,210.378525 199.573563,214.689224 199.505341,218.998978 
	C196.319382,219.138260 193.133438,219.277542 189.395370,219.101639 
	C185.944046,212.094238 183.010147,205.416779 180.156693,198.705109 
	C177.900299,193.397842 177.475586,193.171082 171.247620,194.812302 
	C174.164001,201.545212 177.075836,208.267624 179.987656,214.990021 
	C174.547348,214.420898 172.074860,210.021530 168.742920,206.234039 
	C167.230209,202.743576 165.937363,199.466644 164.402863,195.718964 
	C164.515640,193.304169 165.757233,190.944580 165.074249,189.486450 
	C161.722443,182.330551 157.684097,175.498886 154.241592,168.381805 
	C152.174683,164.108658 149.777344,159.631042 149.267838,155.051804 
	C148.444885,147.655441 148.621033,140.061554 149.270691,132.629349 
	C149.538147,129.569748 152.127243,126.713081 153.803085,124.071228 
	C160.121735,139.003464 167.354385,148.477417 173.081360,148.218246 
	C164.007385,138.967987 157.287506,128.881027 155.006439,116.223984 
	C156.373795,114.515213 158.117844,113.227127 158.478348,111.627289 
	C160.245621,103.783981 165.228622,98.337639 170.862244,93.081276 
	C172.296799,91.742790 172.227158,88.792130 172.848663,86.582214 
	C173.362686,86.381920 173.876694,86.181625 174.744751,86.037178 
	C175.402542,85.781517 175.706314,85.470009 176.010086,85.158493 
	C176.313858,84.936707 176.617630,84.714920 177.338654,84.362473 
	C180.815033,85.819992 183.874161,87.408165 186.933304,88.996338 
	C186.981628,106.422981 187.148590,123.850449 187.027039,141.275909 
	C186.968338,149.692337 184.396545,152.161606 176.091690,152.888412 
	C174.770737,153.004028 173.393570,152.806412 172.128952,153.111923 
	C171.383301,153.292068 170.807953,154.177139 170.156021,154.745178 
	C170.812439,155.485764 171.408508,156.787888 172.136108,156.866089 
	C174.764450,157.148560 177.437042,157.019272 180.506943,157.447479 
	C181.243256,159.548935 181.051132,161.637177 181.985764,162.873871 
	C184.632675,166.376221 187.781204,169.495346 190.648727,172.837006 
	C191.918869,174.317139 192.717621,176.981308 194.193405,177.375824 
	C202.274689,179.536163 210.487762,182.477661 218.679092,182.551895 
	C225.318024,182.612076 233.583267,182.938461 237.911835,175.127869 
	C238.243942,174.528656 239.433975,174.469421 240.049347,173.950592 
	C241.912064,172.380051 244.136276,170.994247 245.406036,169.014587 
	C248.164658,164.713760 250.418747,160.089325 252.879089,155.597168 
	C256.911560,154.064362 261.060883,152.779572 264.951935,150.946533 
	C272.761261,147.267654 277.693115,141.049820 280.068237,132.359070 
	C281.290741,138.235809 282.766052,144.432053 283.332001,150.710251 
	C283.634644,154.067245 281.995697,157.553391 281.883453,161.002411 
	C281.570404,170.621582 274.930725,176.876343 270.206818,184.202637 
	C268.452087,186.924026 267.415039,190.108185 266.024780,193.455994 
	C265.607391,194.497009 264.722107,195.531235 264.901642,195.772202 
	C266.521484,197.946564 268.327881,199.981903 270.210999,202.365082 
z"/>
<path fill="#CE1647" opacity="1.000000" stroke="none" 
	d="
M187.009583,88.533638 
	C183.874161,87.408165 180.815033,85.819992 177.487045,84.118759 
	C177.501877,82.732033 177.622498,81.393211 178.100372,80.197128 
	C179.435959,76.854218 179.396225,74.276314 176.488129,71.305733 
	C169.766037,64.439201 171.080948,56.423447 179.617416,52.077888 
	C191.601578,45.977261 204.676254,45.591732 217.675385,46.661362 
	C223.863342,47.170540 230.200104,48.724850 235.946854,51.080578 
	C244.783752,54.703026 248.107224,62.467052 248.237900,71.645851 
	C248.372192,81.078583 246.484100,90.365250 237.449066,94.748596 
	C231.854324,97.462883 224.736374,97.037521 217.444412,98.152702 
	C217.444412,89.669785 217.446289,82.709709 217.443863,75.749634 
	C217.441635,69.416489 217.540115,63.080849 217.390289,56.751137 
	C217.300659,52.963570 215.035110,51.416615 212.395950,53.500195 
	C206.143616,58.436340 198.809341,58.478996 191.512390,58.810616 
	C187.214600,59.005932 182.900681,58.846283 178.594025,58.846283 
	C178.283463,59.283157 177.972900,59.720032 177.662338,60.156902 
	C178.596527,61.116665 179.412445,62.730495 180.485092,62.924446 
	C185.479050,63.827400 186.936859,67.214050 187.037994,71.574753 
	C187.165466,77.070892 187.079666,82.571983 187.009583,88.533638 
z"/>
<path fill="#CF1B4C" opacity="1.000000" stroke="none" 
	d="
M231.770370,152.996216 
	C218.992722,153.013367 217.628540,151.767685 217.484940,139.450638 
	C217.355148,128.316559 217.434433,117.179855 217.461304,106.044411 
	C217.464798,104.595299 217.705612,103.146759 217.854416,101.499504 
	C223.826279,101.499504 229.467514,101.086632 235.022278,101.603439 
	C242.052399,102.257515 246.253571,107.114677 248.778076,113.227982 
	C252.546707,122.354073 252.771545,131.709259 248.863708,140.872070 
	C245.775681,148.112701 240.621628,152.869415 231.770370,152.996216 
z"/>
<path fill="#D21C4C" opacity="1.000000" stroke="none" 
	d="
M252.449829,155.636551 
	C250.418747,160.089325 248.164658,164.713760 245.406036,169.014587 
	C244.136276,170.994247 241.912064,172.380051 240.049347,173.950592 
	C239.433975,174.469421 238.243942,174.528656 237.911835,175.127869 
	C233.583267,182.938461 225.318024,182.612076 218.679092,182.551895 
	C210.487762,182.477661 202.274689,179.536163 194.193405,177.375824 
	C192.717621,176.981308 191.918869,174.317139 190.648727,172.837006 
	C187.781204,169.495346 184.632675,166.376221 181.985764,162.873871 
	C181.051132,161.637177 181.243256,159.548935 180.960510,157.509521 
	C202.092468,157.049820 223.185226,156.967453 244.276794,156.762222 
	C246.861328,156.737076 249.439453,156.054077 252.449829,155.636551 
M206.233261,167.148834 
	C219.500732,169.207947 232.110718,167.466110 243.859329,160.730164 
	C241.195999,160.669281 238.513840,160.817184 236.063782,161.648849 
	C222.981064,166.089569 209.954636,165.774826 196.828613,161.845825 
	C194.350769,161.104126 191.627777,161.181442 189.017899,160.880829 
	C188.898911,161.553284 188.779938,162.225739 188.660950,162.898178 
	C194.221680,164.268295 199.782425,165.638412 206.233261,167.148834 
z"/>
<path fill="#CE1647" opacity="1.000000" stroke="none" 
	d="
M172.451752,86.713333 
	C172.227158,88.792130 172.296799,91.742790 170.862244,93.081276 
	C165.228622,98.337639 160.245621,103.783981 158.478348,111.627289 
	C158.117844,113.227127 156.373795,114.515213 154.794495,115.864182 
	C153.765244,105.985725 153.209015,96.190117 152.652802,86.394501 
	C152.378479,86.368385 152.104172,86.342262 151.829849,86.316139 
	C151.419266,87.503914 151.008682,88.691689 150.598114,89.879463 
	C144.518311,85.186806 144.634171,84.522911 152.775528,79.098076 
	C157.239349,88.158104 161.863907,90.182114 172.451752,86.713333 
z"/>
<path fill="#D11144" opacity="1.000000" stroke="none" 
	d="
M277.988800,74.351196 
	C279.761078,75.860321 280.546753,77.595993 277.227783,78.920212 
	C277.213196,77.563423 277.510986,76.123207 277.988800,74.351196 
z"/>
<path fill="#CE1647" opacity="1.000000" stroke="none" 
	d="
M175.768997,85.147499 
	C175.706314,85.470009 175.402542,85.781517 175.023895,85.979401 
	C175.008575,85.516800 175.201553,85.273705 175.768997,85.147499 
z"/>
<path fill="#231823" opacity="1.000000" stroke="none" 
	d="
M280.726776,85.922668 
	C281.491425,94.599800 282.142700,102.923744 282.794006,111.247688 
	C281.914490,111.306595 281.034943,111.365501 280.155426,111.424408 
	C279.575897,102.307152 278.996368,93.189888 278.416840,84.072624 
	C278.778229,83.983238 279.139618,83.893845 279.501007,83.804451 
	C279.871826,84.392792 280.242615,84.981133 280.726776,85.922668 
z"/>
<path fill="#D11548" opacity="1.000000" stroke="none" 
	d="
M153.660324,123.764107 
	C152.127243,126.713081 149.538147,129.569748 149.270691,132.629349 
	C148.621033,140.061554 148.444885,147.655441 149.267838,155.051804 
	C149.777344,159.631042 152.174683,164.108658 154.241592,168.381805 
	C157.684097,175.498886 161.722443,182.330551 165.074249,189.486450 
	C165.757233,190.944580 164.515640,193.304169 164.083893,195.550171 
	C159.306885,195.219574 154.607239,194.587036 149.452682,193.892181 
	C148.090378,189.679581 148.076691,184.974838 142.315170,184.032608 
	C141.591049,183.914200 140.795349,182.690674 140.484848,181.818298 
	C136.110962,169.529617 132.625076,157.100357 131.876022,143.908661 
	C131.238129,132.675003 135.038162,122.766655 138.683090,112.557495 
	C140.632339,107.097824 143.775452,103.849503 149.432083,102.546219 
	C151.109009,109.854050 152.384674,116.809082 153.660324,123.764107 
z"/>
<path fill="#231823" opacity="1.000000" stroke="none" 
	d="
M153.803085,124.071228 
	C152.384674,116.809082 151.109009,109.854050 149.759399,102.447235 
	C149.720047,101.552521 149.754669,101.109596 149.800385,99.964493 
	C149.796066,98.506805 149.780685,97.751297 149.765320,96.995789 
	C150.054077,94.881203 150.342850,92.766624 150.614868,90.265747 
	C151.008682,88.691689 151.419266,87.503914 151.829849,86.316139 
	C152.104172,86.342262 152.378479,86.368385 152.652802,86.394501 
	C153.209015,96.190117 153.765244,105.985725 154.533417,116.141151 
	C157.287506,128.881027 164.007385,138.967987 173.081360,148.218246 
	C167.354385,148.477417 160.121735,139.003464 153.803085,124.071228 
z"/>
<path fill="#D11548" opacity="1.000000" stroke="none" 
	d="
M149.503571,97.069412 
	C149.780685,97.751297 149.796066,98.506805 149.743790,99.634979 
	C147.809097,99.313896 146.708344,98.503975 149.503571,97.069412 
z"/>
<path fill="#D2184A" opacity="1.000000" stroke="none" 
	d="
M277.018921,210.416763 
	C273.187714,212.130432 271.683807,210.583252 271.168823,204.155029 
	C273.094849,205.870422 274.998657,207.991211 277.018921,210.416763 
z"/>
<path fill="#D2184A" opacity="1.000000" stroke="none" 
	d="
M271.041443,203.714478 
	C270.852600,203.759216 270.621368,203.505554 270.193237,203.082367 
	C270.330627,203.080597 270.664825,203.248337 271.041443,203.714478 
z"/>
<path fill="#CE1647" opacity="1.000000" stroke="none" 
	d="
M241.426880,199.233841 
	C244.149063,196.061081 245.900879,200.363281 248.565796,200.519684 
	C248.846420,210.279892 248.804184,219.639099 248.761963,228.998291 
	C247.049164,230.205124 245.336365,231.411942 243.299835,232.344910 
	C242.961884,226.931976 243.085999,221.786118 242.836182,216.658493 
	C242.773682,215.376068 241.555695,213.102127 240.787262,213.066986 
	C234.403076,212.775131 227.999741,212.901535 221.645264,212.901535 
	C221.645264,215.345474 221.645264,217.028564 221.645264,219.213226 
	C226.663177,219.213226 231.239914,219.213226 236.133347,219.213226 
	C236.133347,224.475723 236.133347,229.236984 236.133347,233.998245 
	C234.369629,233.626984 232.605927,233.255722 230.428253,232.522507 
	C228.556549,231.712173 227.111618,230.934326 225.638641,230.876968 
	C221.154099,230.702301 216.657516,230.738617 212.167938,230.820374 
	C208.030914,230.895706 205.979568,229.014511 206.000153,224.844254 
	C206.030518,218.689835 206.037476,212.535049 206.003952,206.380676 
	C205.982788,202.495651 207.759888,200.513199 211.733765,200.534988 
	C218.054153,200.569641 224.379395,200.400421 230.692490,200.614929 
	C232.333542,200.670654 233.957794,201.783051 235.552780,202.493164 
	C237.609421,203.408813 239.628876,204.408035 241.664337,205.371262 
	C241.971924,204.905106 242.279526,204.438965 242.587112,203.972809 
	C242.200378,202.393158 241.813629,200.813492 241.426880,199.233841 
z"/>
<path fill="#151920" opacity="1.000000" stroke="none" 
	d="
M241.193176,199.011337 
	C241.813629,200.813492 242.200378,202.393158 242.587112,203.972809 
	C242.279526,204.438965 241.971924,204.905106 241.664337,205.371262 
	C239.628876,204.408035 237.609421,203.408813 235.552780,202.493164 
	C233.957794,201.783051 232.333542,200.670654 230.692490,200.614929 
	C224.379395,200.400421 218.054153,200.569641 211.733765,200.534988 
	C207.759888,200.513199 205.982788,202.495651 206.003952,206.380676 
	C206.037476,212.535049 206.030518,218.689835 206.000153,224.844254 
	C205.979568,229.014511 208.030914,230.895706 212.167938,230.820374 
	C216.657516,230.738617 221.154099,230.702301 225.638641,230.876968 
	C227.111618,230.934326 228.556549,231.712173 230.127869,232.584885 
	C230.203476,233.451324 230.165512,233.893433 230.122650,234.996002 
	C230.084106,236.106323 230.050430,236.556213 230.016769,237.006088 
	C224.538849,237.057022 219.060791,237.161911 213.583038,237.147232 
	C203.348007,237.119827 199.827072,233.583740 199.749237,223.387970 
	C199.740356,222.225800 199.700684,221.063858 199.590332,219.450394 
	C199.573563,214.689224 199.604980,210.378525 199.717941,206.069946 
	C199.927979,198.057495 203.828781,194.100876 211.691513,194.010925 
	C217.996780,193.938782 224.305222,194.084839 230.609009,193.963898 
	C234.915497,193.881287 238.390030,195.289886 241.193176,199.011337 
z"/>
<path fill="#141920" opacity="1.000000" stroke="none" 
	d="
M248.827362,229.443329 
	C248.804184,219.639099 248.846420,210.279892 248.820160,200.455505 
	C248.890182,198.192444 249.028656,196.394562 249.169449,194.566833 
	C253.100281,193.151260 255.917175,194.164978 258.293640,197.428864 
	C260.440277,200.377106 262.988800,203.032791 265.656311,205.984680 
	C274.406525,216.316895 282.860504,226.481918 291.833588,237.271118 
	C287.145294,238.318375 284.287903,238.497192 281.323090,234.702103 
	C273.854156,225.141556 265.740540,216.084244 257.859619,206.847107 
	C257.375854,206.280090 256.669189,205.903259 255.304657,204.850174 
	C255.304657,215.883453 255.304657,226.088882 255.304657,236.703629 
	C253.042068,236.703629 251.337799,236.703629 248.892776,236.703629 
	C248.892776,234.426102 248.892776,232.157242 248.827362,229.443329 
z"/>
<path fill="#1B1821" opacity="1.000000" stroke="none" 
	d="
M180.212250,215.265472 
	C177.075836,208.267624 174.164001,201.545212 171.247620,194.812302 
	C177.475586,193.171082 177.900299,193.397842 180.156693,198.705109 
	C183.010147,205.416779 185.944046,212.094238 189.026062,219.069778 
	C191.543213,224.946457 193.877548,230.539825 196.332855,236.423065 
	C192.071167,237.757416 189.480087,237.449509 187.897598,232.956390 
	C185.804153,227.012650 182.958939,221.333694 180.212250,215.265472 
z"/>
<path fill="#1B1821" opacity="1.000000" stroke="none" 
	d="
M236.225281,234.328583 
	C236.133347,229.236984 236.133347,224.475723 236.133347,219.213226 
	C231.239914,219.213226 226.663177,219.213226 221.645264,219.213226 
	C221.645264,217.028564 221.645264,215.345474 221.645264,212.901535 
	C227.999741,212.901535 234.403076,212.775131 240.787262,213.066986 
	C241.555695,213.102127 242.773682,215.376068 242.836182,216.658493 
	C243.085999,221.786118 242.961884,226.931976 243.040741,232.535675 
	C243.048065,234.031250 242.990768,235.062225 242.617371,236.559540 
	C241.870712,237.138397 241.440155,237.250916 241.009613,237.363434 
	C239.689713,237.229477 238.369812,237.095535 236.614838,236.877335 
	C236.179779,236.793076 236.236099,236.703796 236.236099,236.703796 
	C236.263138,236.022171 236.290176,235.340546 236.225281,234.328583 
z"/>
<path fill="#231823" opacity="1.000000" stroke="none" 
	d="
M261.117401,219.156708 
	C262.463440,220.360733 263.675812,221.504120 264.289429,222.909027 
	C264.443268,223.261215 262.732697,225.001282 261.771057,225.105255 
	C260.817047,225.208420 258.791290,223.886093 258.863861,223.479279 
	C259.130249,221.985153 260.073547,220.611725 261.117401,219.156708 
z"/>
<path fill="#CE1647" opacity="1.000000" stroke="none" 
	d="
M230.189667,236.906555 
	C230.050430,236.556213 230.084106,236.106323 230.183975,235.324524 
	C230.287643,235.597412 230.325104,236.202225 230.189667,236.906555 
z"/>
<path fill="#CE1647" opacity="1.000000" stroke="none" 
	d="
M236.229294,236.775726 
	C235.702026,237.392227 235.125259,238.026093 234.274261,238.829987 
	C234.565796,238.358215 235.131577,237.716400 235.966736,236.889191 
	C236.236099,236.703796 236.179779,236.793076 236.229294,236.775726 
z"/>
<path fill="#CE1647" opacity="1.000000" stroke="none" 
	d="
M241.140137,237.501663 
	C241.440155,237.250916 241.870712,237.138397 242.626160,236.947678 
	C242.390915,237.126282 241.830780,237.383087 241.140137,237.501663 
z"/>
<path fill="#CE1647" opacity="1.000000" stroke="none" 
	d="
M233.979218,239.013580 
	C234.000000,239.000000 233.958420,239.027176 233.979218,239.013580 
z"/>
<path fill="#231823" opacity="1.000000" stroke="none" 
	d="
M205.788208,167.078674 
	C199.782425,165.638412 194.221680,164.268295 188.660950,162.898178 
	C188.779938,162.225739 188.898911,161.553284 189.017899,160.880829 
	C191.627777,161.181442 194.350769,161.104126 196.828613,161.845825 
	C209.954636,165.774826 222.981064,166.089569 236.063782,161.648849 
	C238.513840,160.817184 241.195999,160.669281 243.859329,160.730164 
	C232.110718,167.466110 219.500732,169.207947 205.788208,167.078674 
z"/>
</svg>