<svg version="1.1" id="Layer_1" xmlns="http://www.w3.org/2000/svg" xmlns:xlink="http://www.w3.org/1999/xlink" x="0px" y="0px"
	 width="100%" viewBox="0 0 431 285" enable-background="new 0 0 431 285" xml:space="preserve">
<path fill="#000000" opacity="1.000000" stroke="none" 
	d="
M267.000000,286.000000 
	C178.000015,286.000000 89.500031,286.000000 1.000036,286.000000 
	C1.000024,191.000031 1.000024,96.000069 1.000012,1.000074 
	C144.666611,1.000049 288.333221,1.000049 431.999878,1.000025 
	C431.999908,95.999931 431.999908,190.999863 431.999939,285.999878 
	C377.166656,286.000000 322.333344,286.000000 267.000000,286.000000 
M160.019867,57.019615 
	C160.019867,57.019615 160.006119,56.981625 159.620575,57.265148 
	C159.375229,57.473186 159.166824,57.713268 158.992889,57.992264 
	C158.992889,57.992264 158.984665,57.993916 158.504486,58.243141 
	C158.244431,58.493229 157.984390,58.743313 157.356445,59.557281 
	C156.215302,61.950665 154.583618,64.235855 154.027313,66.758224 
	C152.510788,73.634300 151.435776,80.633369 157.697601,86.086174 
	C162.398026,90.179306 170.109467,89.765060 174.981812,85.235367 
	C180.459229,80.143166 180.717896,76.797935 176.133698,70.339767 
	C171.520630,63.840939 172.182480,58.021595 178.784943,52.768871 
	C180.522171,51.860527 182.259399,50.952179 184.036682,50.065872 
	C184.036682,50.065872 184.036423,50.020149 184.826324,49.953472 
	C195.201843,48.979855 205.567368,47.370911 215.955643,47.207321 
	C226.829254,47.036087 236.905930,50.376068 245.177292,58.933109 
	C246.221832,62.758022 247.544937,66.532051 248.254868,70.418091 
	C249.900772,79.427567 245.003769,90.145699 237.364532,94.874626 
	C231.280670,98.640732 224.753113,98.289322 218.046127,95.984184 
	C218.030518,83.260254 218.063858,70.535828 217.937454,57.812996 
	C217.921631,56.219543 217.062180,54.634472 216.041199,52.837067 
	C215.386185,52.822998 214.578049,52.549828 214.098740,52.833076 
	C204.203568,58.680626 193.361832,59.506050 182.233475,59.101196 
	C180.836609,59.050381 179.406219,59.920849 177.973358,60.370098 
	C178.337891,61.436188 178.388199,61.779263 178.562653,62.038963 
	C178.740280,62.303429 179.008545,62.617073 179.291016,62.684967 
	C186.135468,64.330147 187.037476,69.302299 186.956131,75.349640 
	C186.783676,88.170525 187.018356,100.996880 186.349396,114.327682 
	C186.300903,125.174850 186.252396,136.022018 185.892807,147.512146 
	C183.679977,151.712982 179.769287,152.464767 175.538269,152.749130 
	C172.943939,152.923508 170.024033,152.939621 170.404572,157.649597 
	C171.055084,157.760544 171.705521,157.967819 172.356140,157.968475 
	C195.181290,157.991592 218.006470,158.008453 240.831512,157.958282 
	C241.850403,157.956039 242.867874,157.319153 244.636047,156.959763 
	C251.447571,155.056152 258.291595,153.260635 265.063049,151.223816 
	C275.459015,148.096771 281.853699,135.335907 281.017670,125.547775 
	C280.098511,114.786728 272.791565,105.340347 261.865631,101.681114 
	C259.952393,101.040344 258.133575,100.117699 255.444412,98.973457 
	C259.682190,96.497330 262.977844,94.650330 266.196045,92.677048 
	C277.534393,85.724823 281.525879,73.369865 274.813934,63.808784 
	C268.671631,55.059158 259.735931,50.040047 248.603363,47.663040 
	C247.722031,47.431862 246.840698,47.200680 245.998795,47.001419 
	C245.998795,47.001419 246.049500,46.999615 245.465256,46.528702 
	C238.634399,45.385330 231.803543,44.241962 224.513229,43.084446 
	C224.513229,43.084446 224.053558,43.080879 223.612961,42.346146 
	C213.873825,42.226460 204.134766,42.090950 194.395264,42.031620 
	C193.883011,42.028500 193.366837,42.671661 192.136246,43.287392 
	C189.101517,43.891277 186.066788,44.495167 182.524185,45.333939 
	C182.029343,45.595104 181.534515,45.856270 180.449524,46.236416 
	C179.905884,46.492481 179.362259,46.748543 178.400864,47.032242 
	C178.400864,47.032242 177.983994,47.071045 177.346237,47.124355 
	C176.557098,47.420681 175.767944,47.717007 175.011261,48.025318 
	C175.011261,48.025318 175.026917,47.994465 174.316330,48.015602 
	C173.204926,48.337051 172.093536,48.658501 171.006149,48.992493 
	C171.006149,48.992493 170.985840,48.968266 170.288864,49.106701 
	C167.180496,51.402111 164.072144,53.697521 161.001343,56.028156 
	C161.001343,56.028156 161.006866,55.976963 160.601639,56.252392 
	C160.347229,56.464165 160.140656,56.715282 160.019867,57.019615 
M161.019608,202.990067 
	C161.019608,202.990067 160.935822,202.971313 161.014450,203.619629 
	C161.352722,204.147171 161.690979,204.674728 161.988037,206.113419 
	C161.950119,212.095963 161.949890,218.079056 161.861847,224.060867 
	C161.796616,228.491592 159.474091,230.834824 155.036682,230.885986 
	C149.221100,230.953049 143.404160,230.892746 137.588165,230.936356 
	C133.896530,230.964020 132.028610,229.241272 132.049545,225.504456 
	C132.061646,223.344528 132.443008,221.051880 131.848618,219.060638 
	C131.235092,217.005310 129.881760,213.880844 128.426636,213.622742 
	C124.892738,212.995941 124.996391,216.345291 124.981972,218.813843 
	C124.947060,224.794540 125.043358,230.776016 125.436035,237.571732 
	C136.629120,237.678802 147.822144,237.794189 159.015488,237.854675 
	C159.369293,237.856583 159.726135,237.293060 160.682419,236.872437 
	C164.136124,235.905380 167.717346,235.058777 167.868500,230.024033 
	C168.242096,226.565125 168.954285,223.102295 168.914307,219.648178 
	C168.844727,213.635406 168.311157,207.628006 167.899857,200.964813 
	C165.654449,197.856766 163.757538,194.313049 158.687714,193.343781 
	C148.637192,193.235992 138.586777,193.102982 128.535995,193.065384 
	C127.675636,193.062149 126.812912,193.692963 125.575005,194.547913 
	C125.260040,196.354935 124.945068,198.161957 125.305672,200.559906 
	C127.282814,200.707596 129.257599,200.914520 131.237488,200.992950 
	C140.817902,201.372437 150.399704,201.717407 159.989105,202.016174 
	C159.989105,202.016174 159.933640,202.036240 160.084427,202.558517 
	C160.389908,202.730301 160.695389,202.902084 161.019608,202.990067 
M369.904907,209.535980 
	C369.610291,209.374115 369.315674,209.212250 368.235260,209.035706 
	C362.877747,209.756073 362.037903,211.349670 365.394165,215.301605 
	C366.769043,216.920456 369.065369,217.756683 371.411987,219.689056 
	C374.509766,219.791565 377.608368,219.873077 380.705109,220.001175 
	C386.366180,220.235321 392.026093,220.497009 398.061157,221.432358 
	C397.732117,224.109360 397.403107,226.786362 396.201752,229.865265 
	C373.903442,229.904617 351.605103,229.949158 329.306793,229.980698 
	C320.840607,229.992676 320.781097,229.916702 321.015747,220.741974 
	C321.015747,220.741974 321.015076,220.266434 321.925293,220.068741 
	C330.142212,220.051422 338.359955,220.088104 346.575378,219.967957 
	C348.087738,219.945847 349.590820,219.288284 351.416016,218.339264 
	C351.239105,216.615585 351.062225,214.891907 350.493317,212.392624 
	C338.986053,212.283264 327.478882,212.155273 315.971375,212.116440 
	C315.360596,212.114365 314.747223,212.865402 314.054077,214.166733 
	C314.072998,221.674240 314.091949,229.181747 314.422760,237.525696 
	C315.227905,237.678970 316.032898,237.965195 316.838257,237.966248 
	C342.891235,238.000580 368.944305,238.019196 394.997223,237.974777 
	C396.026611,237.973022 397.054901,237.331039 398.688751,236.698990 
	C408.685516,230.306320 408.774811,220.955475 398.506012,212.273758 
	C389.645691,212.163940 380.785339,212.054123 371.969727,212.059814 
	C371.969727,212.059814 372.085266,212.015137 371.898590,211.424377 
	C371.260712,210.919525 370.622864,210.414673 369.978271,210.019669 
	C369.978271,210.019669 370.088135,210.026474 369.904907,209.535980 
M227.282700,37.886871 
	C230.041626,38.651321 232.800552,39.415768 235.559479,40.180218 
	C235.691833,39.734093 235.824203,39.287964 235.956558,38.841839 
	C233.995071,38.214207 232.033569,37.586571 229.638885,36.500267 
	C228.707825,36.777004 227.776779,37.053741 227.282700,37.886871 
M357.141724,194.462952 
	C357.067749,194.224442 356.993774,193.985916 356.272400,193.234116 
	C342.884125,193.157318 329.495850,193.066559 316.107483,193.043365 
	C315.410858,193.042160 314.713287,193.616760 313.969910,194.801834 
	C313.994629,196.558441 314.019348,198.315033 314.194824,200.856293 
	C315.862030,201.231705 317.536224,201.959091 319.195282,201.926056 
	C330.890015,201.693176 342.582581,201.330795 354.272858,200.924637 
	C355.495331,200.882141 356.698578,200.285385 357.953857,199.246262 
	C357.754852,197.891037 357.555817,196.535812 357.141724,194.462952 
M257.124176,207.623734 
	C257.761749,208.207916 258.399323,208.792099 259.383850,209.899948 
	C266.251862,218.017838 273.256714,226.025436 279.927673,234.302139 
	C283.063538,238.192764 286.429596,238.766617 291.096283,236.856140 
	C290.335907,235.563370 289.890106,234.502808 289.186890,233.655991 
	C280.686157,223.418655 272.350006,213.033173 263.523346,203.083389 
	C259.751923,198.832092 256.702576,192.626160 248.338867,194.464249 
	C248.245346,208.147247 248.141083,221.830231 248.099289,235.513382 
	C248.097672,236.038437 248.697922,236.565308 249.009659,236.989059 
	C249.009659,236.989059 248.907379,236.997116 249.419144,237.649414 
	C251.477264,237.649414 253.535385,237.649414 256.007141,237.649414 
	C256.007141,229.955063 255.923264,222.557175 256.051300,215.162949 
	C256.097931,212.470093 256.649261,209.785980 256.981506,207.021790 
	C256.981506,207.021790 256.905426,207.010651 257.124176,207.623734 
M53.179039,201.326477 
	C53.345470,201.576126 53.567402,201.758072 54.489964,202.217438 
	C58.109051,206.271286 57.763035,208.749588 52.462128,212.342636 
	C43.754108,212.342636 35.046085,212.342636 26.321255,212.342636 
	C26.321255,221.033249 26.321255,229.261078 26.321255,237.873993 
	C38.044979,237.873993 49.456806,237.882385 60.868412,237.835876 
	C61.234528,237.834381 61.598351,237.269867 62.587669,236.695389 
	C71.389610,231.348663 73.432320,222.816818 66.912041,216.747482 
	C64.095596,214.125809 63.533249,211.643967 63.839130,208.088577 
	C64.514420,200.239288 62.307480,197.041611 54.559189,193.303268 
	C48.503315,193.206543 42.445786,192.984528 36.392242,193.064423 
	C33.229614,193.106140 30.073997,193.678848 26.977594,194.005524 
	C26.977594,194.005524 26.954475,193.947266 26.305178,194.220428 
	C24.593914,198.810425 25.817873,201.805573 30.032434,201.833252 
	C37.704681,201.883621 45.380867,201.333679 53.042500,200.942581 
	C53.042500,200.942581 52.950844,200.955460 53.179039,201.326477 
M405.313568,193.324753 
	C394.393738,193.221024 383.473785,193.068619 372.554382,193.102066 
	C371.639343,193.104858 370.728119,194.357559 369.187286,195.247772 
	C367.691162,196.528412 365.580811,197.538345 364.864899,199.162811 
	C364.088623,200.924362 363.790405,204.493774 364.720734,205.111832 
	C367.555786,206.995392 369.137817,204.706573 370.801392,201.915527 
	C382.647980,201.915527 394.494568,201.915527 407.399872,201.915527 
	C406.691864,198.284073 406.270782,196.124222 405.313568,193.324753 
M83.367088,194.321198 
	C81.392113,196.062531 79.031326,197.538742 77.585014,199.643387 
	C76.699165,200.932465 77.215981,203.185455 77.102890,205.005569 
	C79.055153,204.840439 81.082817,204.944290 82.935768,204.424850 
	C84.412086,204.011017 85.774490,201.989670 87.017128,202.135315 
	C96.155624,203.206360 105.933022,199.028488 114.490845,205.424133 
	C115.373077,206.083481 117.651802,205.854965 118.576515,205.133484 
	C119.197769,204.648804 118.997177,202.350540 118.428223,201.241165 
	C116.628578,197.732101 114.902145,193.901428 109.436073,193.325989 
	C104.295059,193.217026 99.151428,192.960556 94.013962,193.051620 
	C90.660072,193.111084 87.315125,193.675034 83.367088,194.321198 
M83.959557,229.350784 
	C83.626518,225.419861 83.597244,221.427139 82.815834,217.587463 
	C82.488251,215.977814 80.566849,214.692520 79.370049,213.259781 
	C78.254356,214.628876 76.382690,215.893478 76.176071,217.388229 
	C75.706543,220.784882 75.693672,224.344452 76.161545,227.746140 
	C76.773018,232.191925 78.724434,235.966003 84.300842,237.676910 
	C90.746643,237.785080 97.193527,238.008957 103.637749,237.948593 
	C106.508881,237.921692 109.374649,237.322601 112.896500,236.857513 
	C114.771317,234.873428 116.819466,233.017807 118.433472,230.840378 
	C119.056473,229.999878 119.207611,227.743286 118.668846,227.339600 
	C117.680206,226.598862 115.816452,226.220184 114.684120,226.651962 
	C112.597908,227.447464 110.776939,228.938614 107.930687,230.040237 
	C99.987122,230.093872 92.043549,230.147507 83.959557,229.350784 
M307.150848,194.046066 
	C304.052094,195.251358 300.552063,195.908203 297.959534,197.805313 
	C294.943359,200.012466 292.640137,203.236389 290.175812,206.144730 
	C286.883423,210.030319 285.250061,210.149597 281.827698,206.269623 
	C279.190704,203.280060 276.877502,199.974106 274.025543,197.217194 
	C272.482849,195.725906 270.206726,194.577637 268.093964,194.191818 
	C265.120789,193.648880 263.698242,195.630814 265.689819,198.011581 
	C271.325684,204.748703 277.209442,211.295410 283.331726,217.590164 
	C284.236542,218.520462 287.638000,218.457214 288.724915,217.515457 
	C292.472626,214.268356 295.706696,210.428391 299.891998,207.146759 
	C300.256683,208.662308 300.911621,210.173111 300.936462,211.694214 
	C301.052063,218.775650 300.920532,225.861267 301.051147,232.942200 
	C301.081726,234.600113 301.789154,236.245575 302.898346,237.927719 
	C304.261108,237.648865 305.623901,237.370010 307.829407,236.926422 
	C308.212830,236.283401 308.916718,235.648102 308.932404,234.996246 
	C309.247314,221.899506 309.503357,208.801117 309.659576,195.701706 
	C309.665741,195.183548 308.569031,194.652222 307.150848,194.046066 
M206.955566,226.969574 
	C207.024475,218.963104 207.093384,210.956635 207.680450,202.766830 
	C208.150604,202.482346 208.620758,202.197861 209.849655,201.591843 
	C217.559982,201.717377 225.270309,201.842911 233.614273,202.252594 
	C234.259659,202.754501 234.836441,203.518539 235.563385,203.708740 
	C237.670502,204.260117 240.665375,205.658020 241.814590,204.775024 
	C244.451904,202.748627 243.224304,199.900131 240.756912,198.213654 
	C238.334778,196.558121 235.585266,195.381577 232.495193,193.285233 
	C227.747009,193.202667 222.995377,192.973953 218.251785,193.086029 
	C214.765732,193.168427 211.290207,193.697006 207.138123,194.165955 
	C203.090408,195.722931 200.339447,198.332748 199.361496,203.476303 
	C199.248260,209.893555 199.030457,216.311539 199.074081,222.727722 
	C199.091156,225.240219 199.694687,227.748749 200.315674,230.847198 
	C203.358414,233.172073 206.129150,236.833237 209.505234,237.520462 
	C215.095642,238.658432 221.085754,238.069229 226.884445,237.766739 
	C228.191330,237.698578 229.403595,235.816589 230.659439,234.769592 
	C229.381744,233.557999 228.209656,231.467590 226.806625,231.298996 
	C222.539474,230.786209 218.141922,231.350372 213.877594,230.825394 
	C211.472092,230.529251 209.228821,228.915482 206.955566,226.969574 
M192.959763,227.543945 
	C188.692795,217.639694 184.304703,207.785080 180.214508,197.808365 
	C178.409439,193.405502 175.810989,193.192535 171.578369,195.344269 
	C174.442123,202.213974 177.191559,208.881866 179.999710,215.524933 
	C182.703995,221.922241 185.449478,228.302368 188.215988,234.673065 
	C189.497589,237.624283 192.064255,238.720779 194.662720,237.318863 
	C195.536255,236.847580 195.209991,233.676529 194.975632,231.796310 
	C194.821365,230.558655 193.850845,229.422745 192.959763,227.543945 
M244.108322,227.404510 
	C244.067703,224.074097 244.377563,220.684967 243.833633,217.438889 
	C243.574707,215.893738 241.780243,213.517792 240.526688,213.415604 
	C235.072495,212.970932 229.550964,213.049255 224.080063,213.375824 
	C223.023758,213.438889 221.307175,215.469986 221.313370,216.585358 
	C221.319397,217.669495 223.015411,219.459732 224.201355,219.677765 
	C226.947281,220.182602 229.836777,220.032806 232.661865,219.946198 
	C235.636551,219.855011 236.960815,221.205185 236.943726,224.105331 
	C236.925064,227.269821 236.710754,230.463120 237.074524,233.586472 
	C237.241333,235.018570 238.586319,236.313461 239.397034,237.670593 
	C240.847824,236.557175 242.889999,235.726364 243.592880,234.255554 
	C244.389664,232.588196 243.986557,230.347443 244.108322,227.404510 
M163.078934,142.319687 
	C165.597260,145.088028 167.697327,148.439209 172.419983,148.816727 
	C156.640686,130.787949 150.313492,110.067467 153.137939,86.363899 
	C149.322449,93.960243 149.116257,101.910225 150.246658,109.559265 
	C151.949738,121.083710 155.393066,132.217392 163.078934,142.319687 
M213.783112,167.911469 
	C221.273788,167.557663 229.011810,168.833221 235.912918,163.926529 
	C228.228668,161.919403 220.687302,166.321945 213.048218,165.011826 
	C205.182388,163.662842 197.334106,162.211563 189.478149,160.805023 
	C189.376526,161.422791 189.274918,162.040573 189.173309,162.658340 
	C196.619247,166.385269 204.560242,168.028320 213.783112,167.911469 
M279.244812,108.070992 
	C279.916504,109.145653 280.588196,110.220306 281.259857,111.294952 
	C281.818237,110.220093 282.817291,109.161789 282.858398,108.067505 
	C283.032959,103.419823 283.270782,98.726311 282.804474,94.118462 
	C282.450409,90.620026 281.068146,87.225655 280.143402,83.784973 
	C279.880737,83.919739 279.618042,84.054504 279.355377,84.189262 
	C279.355377,91.914635 279.355377,99.639999 279.244812,108.070992 
M200.813644,39.450130 
	C207.547867,39.250000 214.285034,39.112846 221.013794,38.796627 
	C222.360107,38.733353 223.700455,38.046013 224.969406,37.480167 
	C225.123169,37.411594 224.999741,35.889004 224.683594,35.744888 
	C223.398361,35.159012 221.960754,34.424099 220.628403,34.509521 
	C215.227661,34.855793 209.836975,35.415543 204.458984,36.038074 
	C201.496063,36.381042 198.565674,37.005138 195.620621,37.502491 
	C195.711670,38.078751 195.802719,38.655010 195.893768,39.231270 
	C197.297012,39.357250 198.700241,39.483231 200.813644,39.450130 
M259.961792,221.048676 
	C260.541962,221.797394 261.122162,222.546097 261.702393,223.294800 
	C262.047913,222.505295 262.393433,221.715790 262.738953,220.926270 
	C261.887268,220.803207 261.035614,220.680145 259.961792,221.048676 
M318.104614,205.728683 
	C317.648499,205.847870 317.192413,205.967072 316.736298,206.086258 
	C316.852295,206.347031 316.968323,206.607803 317.084351,206.868576 
	C317.471588,206.596481 317.858856,206.324371 318.104614,205.728683 
z"/>
<path fill="#15171F" opacity="1.000000" stroke="none" 
	d="
M170.105667,156.813446 
	C170.024033,152.939621 172.943939,152.923508 175.538269,152.749130 
	C179.769287,152.464767 183.679977,151.712982 186.247803,146.828766 
	C186.763885,135.370575 186.924988,124.595787 187.086090,113.820992 
	C187.018356,100.996880 186.783676,88.170525 186.956131,75.349640 
	C187.037476,69.302299 186.135468,64.330147 179.291016,62.684967 
	C179.008545,62.617073 178.740280,62.303429 178.562653,62.038963 
	C178.388199,61.779263 178.337891,61.436188 177.973358,60.370098 
	C179.406219,59.920849 180.836609,59.050381 182.233475,59.101196 
	C193.361832,59.506050 204.203568,58.680626 214.098740,52.833076 
	C214.578049,52.549828 215.386185,52.822998 216.351227,53.403057 
	C216.737305,66.439651 216.764420,78.910965 216.942856,91.380104 
	C216.969269,93.226120 217.710571,95.061913 218.121155,96.902435 
	C224.753113,98.289322 231.280670,98.640732 237.364532,94.874626 
	C245.003769,90.145699 249.900772,79.427567 248.254868,70.418091 
	C247.544937,66.532051 246.221832,62.758022 245.087158,58.287674 
	C244.134964,56.319691 243.548813,54.632854 242.364441,53.735928 
	C236.359512,49.188335 229.839310,45.799301 222.002121,45.643646 
	C222.001648,44.883503 222.001694,44.449131 222.179993,43.893326 
	C222.598267,43.612247 222.831024,43.442623 223.304810,43.212124 
	C223.719925,43.134441 223.886749,43.107658 224.053558,43.080879 
	C224.053558,43.080879 224.513229,43.084446 225.074387,43.261227 
	C232.440201,44.625210 239.244843,45.812412 246.049500,46.999615 
	C246.049500,46.999615 245.998795,47.001419 246.287491,47.129662 
	C247.449631,47.510757 248.323090,47.763611 249.196533,48.016464 
	C259.735931,50.040047 268.671631,55.059158 274.813934,63.808784 
	C281.525879,73.369865 277.534393,85.724823 266.196045,92.677048 
	C262.977844,94.650330 259.682190,96.497330 255.444412,98.973457 
	C258.133575,100.117699 259.952393,101.040344 261.865631,101.681114 
	C272.791565,105.340347 280.098511,114.786728 281.017670,125.547775 
	C281.853699,135.335907 275.459015,148.096771 265.063049,151.223816 
	C258.291595,153.260635 251.447571,155.056152 243.801773,156.941345 
	C218.680222,156.886429 194.392944,156.849930 170.105667,156.813446 
M217.650299,102.341278 
	C217.402878,103.109833 216.941620,103.877899 216.939896,104.647003 
	C216.911682,117.271690 216.882538,129.897217 217.036484,142.520325 
	C217.054688,144.012222 218.147751,145.490997 218.943085,147.701080 
	C220.421616,149.336533 221.605301,151.843170 223.428513,152.460205 
	C232.459579,155.516693 244.245895,150.495010 248.366928,141.900558 
	C253.949753,130.257477 252.983200,118.956093 245.477814,108.419617 
	C242.413849,104.118248 237.941650,102.011894 232.632584,101.957184 
	C227.807434,101.907448 222.980865,101.994667 217.650299,102.341278 
z"/>
<path fill="#1D131E" opacity="1.000000" stroke="none" 
	d="
M370.942535,218.948929 
	C369.065369,217.756683 366.769043,216.920456 365.394165,215.301605 
	C362.037903,211.349670 362.877747,209.756073 368.707458,209.297974 
	C369.482513,209.715668 369.785309,209.871078 370.088135,210.026474 
	C370.088135,210.026474 369.978271,210.019669 369.991364,210.310120 
	C370.698059,211.072083 371.391663,211.543610 372.085266,212.015137 
	C372.085266,212.015137 371.969727,212.059814 372.279541,212.270798 
	C381.364441,212.666428 390.139587,212.851059 398.914703,213.035706 
	C408.774811,220.955475 408.685516,230.306320 397.913818,236.798080 
	C369.462891,236.827866 341.786896,236.758560 314.110901,236.689255 
	C314.091949,229.181747 314.072998,221.674240 314.548096,213.678116 
	C326.989838,213.182404 338.937592,213.175323 350.885315,213.168243 
	C351.062225,214.891907 351.239105,216.615585 350.781891,218.618500 
	C342.075684,218.899506 334.002350,218.826859 325.932617,218.964691 
	C324.286499,218.992828 322.653900,219.811951 321.015076,220.266434 
	C321.015076,220.266434 321.015747,220.741974 320.843231,221.331024 
	C319.411774,230.571091 319.827881,231.078674 328.378021,231.084808 
	C348.941742,231.099564 369.505798,231.153900 390.068787,231.035889 
	C392.406830,231.022491 394.739105,230.011688 397.074066,229.463379 
	C397.403107,226.786362 397.732117,224.109360 397.532623,220.952240 
	C395.380402,219.955643 393.765778,219.029907 392.131409,218.993576 
	C385.071625,218.836685 378.006012,218.940186 370.942535,218.948929 
z"/>
<path fill="#1D131D" opacity="1.000000" stroke="none" 
	d="
M55.012951,194.045517 
	C62.307480,197.041611 64.514420,200.239288 63.839130,208.088577 
	C63.533249,211.643967 64.095596,214.125809 66.912041,216.747482 
	C73.432320,222.816818 71.389610,231.348663 61.811089,236.797653 
	C51.389996,236.901855 41.744446,236.823120 32.101524,236.947784 
	C28.539862,236.993790 26.880697,235.713257 26.998690,232.013977 
	C27.147041,227.362885 27.144371,222.698624 26.975571,218.048447 
	C26.841900,214.366043 28.454031,213.010101 32.029327,213.065292 
	C39.011402,213.173111 45.997021,213.050919 52.981174,213.023972 
	C57.763035,208.749588 58.109051,206.271286 54.033371,201.878281 
	C53.373619,201.338699 53.164974,201.144150 52.950844,200.955460 
	C52.950844,200.955460 53.042500,200.942581 52.700668,200.750061 
	C46.134113,200.346497 39.905643,199.902832 33.685932,200.002945 
	C29.244055,200.074448 26.727587,198.721161 26.954475,193.947266 
	C26.954475,193.947266 26.977594,194.005524 27.418575,194.056259 
	C36.910690,194.086502 45.961819,194.066010 55.012951,194.045517 
M33.779129,230.532516 
	C40.170689,230.716522 46.562813,231.042618 52.953541,231.017258 
	C55.655933,231.006531 58.355389,230.256424 61.449978,229.306671 
	C64.743256,224.744324 64.483856,223.125107 59.366058,219.300247 
	C54.071068,219.169617 48.776581,218.957825 43.480988,218.925232 
	C32.341667,218.856644 32.341431,218.895233 33.779129,230.532516 
z"/>
<path fill="#17161F" opacity="1.000000" stroke="none" 
	d="
M222.001740,44.014763 
	C222.001694,44.449131 222.001648,44.883503 221.585388,45.587799 
	C210.385437,43.902645 199.733231,45.218773 189.154724,47.348740 
	C187.342789,47.713570 185.737289,49.103676 184.036423,50.020149 
	C184.036423,50.020149 184.036682,50.065872 183.644577,50.043892 
	C181.543945,50.952805 179.835419,51.883698 178.126877,52.814590 
	C172.182480,58.021595 171.520630,63.840939 176.133698,70.339767 
	C180.717896,76.797935 180.459229,80.143166 174.981812,85.235367 
	C170.109467,89.765060 162.398026,90.179306 157.697601,86.086174 
	C151.435776,80.633369 152.510788,73.634300 154.027313,66.758224 
	C154.583618,64.235855 156.215302,61.950665 157.769516,59.131699 
	C158.449951,58.468719 158.717316,58.231319 158.984665,57.993919 
	C158.984665,57.993916 158.992889,57.992264 159.176758,57.836433 
	C159.594910,57.465271 159.810074,57.232277 160.006119,56.981625 
	C160.006119,56.981625 160.019867,57.019615 160.185455,56.855209 
	C160.588715,56.470375 160.807327,56.232430 161.006866,55.976963 
	C161.006866,55.976963 161.001343,56.028156 161.314087,55.896713 
	C164.746506,53.499599 167.866165,51.233932 170.985840,48.968269 
	C170.985840,48.968266 171.006149,48.992493 171.345978,48.976727 
	C172.799500,48.638794 173.913208,48.316631 175.026917,47.994469 
	C175.026917,47.994465 175.011261,48.025318 175.306976,47.961777 
	C176.396454,47.622501 177.190231,47.346771 177.983994,47.071045 
	C177.983994,47.071045 178.400864,47.032242 178.896912,46.926224 
	C179.941849,46.585953 180.490768,46.351696 181.039673,46.117435 
	C181.534515,45.856270 182.029343,45.595104 183.121643,45.329655 
	C187.138062,44.793926 190.556992,44.262482 194.317093,43.650387 
	C195.122772,43.523052 195.587280,43.476368 196.435547,43.523933 
	C200.552307,43.462807 204.285324,43.307430 208.468842,43.098656 
	C211.944443,43.106720 214.969543,43.168179 218.317596,43.340473 
	C219.760941,43.639126 220.881348,43.826946 222.001740,44.014763 
z"/>
<path fill="#20121D" opacity="1.000000" stroke="none" 
	d="
M159.243805,194.040710 
	C163.757538,194.313049 165.654449,197.856766 167.869354,201.782410 
	C167.564713,211.789062 167.290588,220.978104 167.016449,230.167160 
	C167.717346,235.058777 164.136124,235.905380 159.910049,236.884262 
	C147.787369,236.849777 136.437073,236.803482 125.086769,236.757172 
	C125.043358,230.776016 124.947060,224.794540 124.981972,218.813843 
	C124.996391,216.345291 124.892738,212.995941 128.426636,213.622742 
	C129.881760,213.880844 131.235092,217.005310 131.848618,219.060638 
	C132.443008,221.051880 132.061646,223.344528 132.049545,225.504456 
	C132.028610,229.241272 133.896530,230.964020 137.588165,230.936356 
	C143.404160,230.892746 149.221100,230.953049 155.036682,230.885986 
	C159.474091,230.834824 161.796616,228.491592 161.861847,224.060867 
	C161.949890,218.079056 161.950119,212.095963 161.966797,205.337250 
	C161.608963,204.031158 161.272385,203.501236 160.935822,202.971313 
	C160.935822,202.971313 161.019608,202.990067 160.942993,202.761169 
	C160.555481,202.366928 160.244553,202.201584 159.933640,202.036240 
	C159.933640,202.036240 159.989105,202.016174 159.821655,201.687836 
	C157.762787,200.914200 155.876755,200.112106 153.979080,200.083527 
	C144.197723,199.936188 134.413391,199.987183 124.630096,199.968979 
	C124.945068,198.161957 125.260040,196.354935 126.234406,194.311005 
	C137.677139,194.062973 148.460464,194.051834 159.243805,194.040710 
z"/>
<path fill="#24111E" opacity="1.000000" stroke="none" 
	d="
M200.027893,202.923203 
	C200.339447,198.332748 203.090408,195.722931 207.953232,194.142288 
	C216.838699,194.077362 224.909073,194.036087 232.979431,193.994812 
	C235.585266,195.381577 238.334778,196.558121 240.756912,198.213654 
	C243.224304,199.900131 244.451904,202.748627 241.814590,204.775024 
	C240.665375,205.658020 237.670502,204.260117 235.563385,203.708740 
	C234.836441,203.518539 234.259659,202.754501 233.085846,201.795288 
	C225.210419,201.075195 217.864014,200.786850 210.514954,200.610245 
	C210.050980,200.599106 209.566071,201.458801 209.090912,201.913376 
	C208.620758,202.197861 208.150604,202.482346 207.193329,203.218597 
	C206.774948,211.745331 206.843704,219.820282 206.912476,227.895248 
	C209.228821,228.915482 211.472092,230.529251 213.877594,230.825394 
	C218.141922,231.350372 222.539474,230.786209 226.806625,231.298996 
	C228.209656,231.467590 229.381744,233.557999 230.659424,234.769592 
	C229.403595,235.816589 228.191330,237.698578 226.884445,237.766739 
	C221.085754,238.069229 215.095642,238.658432 209.505234,237.520462 
	C206.129150,236.833237 203.358414,233.172073 200.234314,230.070435 
	C200.111252,220.503510 200.069565,211.713348 200.027893,202.923203 
z"/>
<path fill="#22111D" opacity="1.000000" stroke="none" 
	d="
M306.986664,237.091171 
	C305.623901,237.370010 304.261108,237.648865 302.549316,237.453857 
	C302.155579,234.662201 302.082001,232.344528 302.071442,230.026566 
	C302.038239,222.740372 302.077301,215.453201 301.952393,208.168762 
	C301.935638,207.192261 301.137451,206.229187 300.701141,205.259888 
	C300.179565,205.778000 299.657990,206.296127 299.136414,206.814240 
	C295.706696,210.428391 292.472626,214.268356 288.724915,217.515457 
	C287.638000,218.457214 284.236542,218.520462 283.331726,217.590164 
	C277.209442,211.295410 271.325684,204.748703 265.689819,198.011581 
	C263.698242,195.630814 265.120789,193.648880 268.093964,194.191818 
	C270.206726,194.577637 272.482849,195.725906 274.025543,197.217194 
	C276.877502,199.974106 279.190704,203.280060 281.827698,206.269623 
	C285.250061,210.149597 286.883423,210.030319 290.175812,206.144730 
	C292.640137,203.236389 294.943359,200.012466 297.959534,197.805313 
	C300.552063,195.908203 304.052094,195.251358 307.549225,194.543320 
	C307.917236,206.789352 307.931244,218.538574 307.818024,230.286560 
	C307.796143,232.557220 307.276611,234.823090 306.986664,237.091171 
z"/>
<path fill="#20121D" opacity="1.000000" stroke="none" 
	d="
M249.145401,194.126694 
	C256.702576,192.626160 259.751923,198.832092 263.523346,203.083389 
	C272.350006,213.033173 280.686157,223.418655 289.186890,233.655991 
	C289.890106,234.502808 290.335907,235.563370 291.096283,236.856140 
	C286.429596,238.766617 283.063538,238.192764 279.927673,234.302139 
	C273.256714,226.025436 266.251862,218.017838 259.203674,209.269272 
	C258.317474,208.095947 257.611450,207.553299 256.905426,207.010651 
	C256.905426,207.010651 256.981506,207.021790 257.041656,206.781769 
	C254.259399,204.576904 255.044357,207.259567 255.031265,208.310959 
	C254.938324,215.770920 254.712952,223.243362 255.040344,230.689362 
	C255.247711,235.406113 253.720673,237.578964 248.907379,236.997116 
	C248.907379,236.997116 249.009659,236.989059 249.045837,236.566605 
	C249.103149,222.138336 249.124283,208.132507 249.145401,194.126694 
z"/>
<path fill="#22111C" opacity="1.000000" stroke="none" 
	d="
M83.771805,236.953796 
	C78.724434,235.966003 76.773018,232.191925 76.161545,227.746140 
	C75.693672,224.344452 75.706543,220.784882 76.176071,217.388229 
	C76.382690,215.893478 78.254356,214.628876 79.370049,213.259781 
	C80.566849,214.692520 82.488251,215.977814 82.815834,217.587463 
	C83.597244,221.427139 83.626518,225.419861 84.409309,229.918579 
	C92.854523,230.370865 100.849976,230.255371 108.845436,230.139893 
	C110.776939,228.938614 112.597908,227.447464 114.684120,226.651962 
	C115.816452,226.220184 117.680206,226.598862 118.668846,227.339600 
	C119.207611,227.743286 119.056473,229.999878 118.433472,230.840378 
	C116.819466,233.017807 114.771317,234.873428 112.087479,236.868896 
	C102.109581,236.904800 92.940689,236.929291 83.771805,236.953796 
z"/>
<path fill="#301220" opacity="1.000000" stroke="none" 
	d="
M109.944633,194.006882 
	C114.902145,193.901428 116.628578,197.732101 118.428223,201.241165 
	C118.997177,202.350540 119.197769,204.648804 118.576515,205.133484 
	C117.651802,205.854965 115.373077,206.083481 114.490845,205.424133 
	C105.933022,199.028488 96.155624,203.206360 87.017128,202.135315 
	C85.774490,201.989670 84.412086,204.011017 82.935768,204.424850 
	C81.082817,204.944290 79.055153,204.840439 77.102890,205.005569 
	C77.215981,203.185455 76.699165,200.932465 77.585014,199.643387 
	C79.031326,197.538742 81.392113,196.062531 84.135834,194.208664 
	C93.251259,194.066376 101.597946,194.036636 109.944633,194.006882 
z"/>
<path fill="#28111E" opacity="1.000000" stroke="none" 
	d="
M193.102814,227.892609 
	C193.850845,229.422745 194.821365,230.558655 194.975632,231.796310 
	C195.209991,233.676529 195.536255,236.847580 194.662720,237.318863 
	C192.064255,238.720779 189.497589,237.624283 188.215988,234.673065 
	C185.449478,228.302368 182.703995,221.922241 179.999710,215.524933 
	C177.191559,208.881866 174.442123,202.213974 171.578369,195.344269 
	C175.810989,193.192535 178.409439,193.405502 180.214508,197.808365 
	C184.304703,207.785080 188.692795,217.639694 193.102814,227.892609 
z"/>
<path fill="#23121E" opacity="1.000000" stroke="none" 
	d="
M244.106735,227.880249 
	C243.986557,230.347443 244.389664,232.588196 243.592880,234.255554 
	C242.889999,235.726364 240.847824,236.557175 239.397034,237.670593 
	C238.586319,236.313461 237.241333,235.018570 237.074524,233.586472 
	C236.710754,230.463120 236.925064,227.269821 236.943726,224.105331 
	C236.960815,221.205185 235.636551,219.855011 232.661865,219.946198 
	C229.836777,220.032806 226.947281,220.182602 224.201355,219.677765 
	C223.015411,219.459732 221.319397,217.669495 221.313370,216.585358 
	C221.307175,215.469986 223.023758,213.438889 224.080063,213.375824 
	C229.550964,213.049255 235.072495,212.970932 240.526688,213.415604 
	C241.780243,213.517792 243.574707,215.893738 243.833633,217.438889 
	C244.377563,220.684967 244.067703,224.074097 244.106735,227.880249 
z"/>
<path fill="#3C0A1B" opacity="1.000000" stroke="none" 
	d="
M162.933502,141.987930 
	C155.393066,132.217392 151.949738,121.083710 150.246658,109.559265 
	C149.116257,101.910225 149.322449,93.960243 153.137939,86.363899 
	C150.313492,110.067467 156.640686,130.787949 172.419983,148.816727 
	C167.697327,148.439209 165.597260,145.088028 162.933502,141.987930 
z"/>
<path fill="#20121D" opacity="1.000000" stroke="none" 
	d="
M369.941498,202.003876 
	C369.137817,204.706573 367.555786,206.995392 364.720734,205.111832 
	C363.790405,204.493774 364.088623,200.924362 364.864899,199.162811 
	C365.580811,197.538345 367.691162,196.528412 369.842102,195.135315 
	C370.946411,194.963928 371.395905,194.905014 372.323608,194.830566 
	C381.737366,194.841736 390.676453,194.746078 399.605011,195.008087 
	C401.209900,195.055176 402.771484,196.576797 404.353058,197.417633 
	C402.762665,198.234344 401.193481,199.704285 399.578247,199.756805 
	C391.808868,200.009338 384.022247,199.731491 376.252716,199.981949 
	C374.129486,200.050385 372.044189,201.297607 369.941498,202.003876 
z"/>
<path fill="#350D1B" opacity="1.000000" stroke="none" 
	d="
M213.352325,167.906815 
	C204.560242,168.028320 196.619247,166.385269 189.173309,162.658340 
	C189.274918,162.040573 189.376526,161.422791 189.478149,160.805023 
	C197.334106,162.211563 205.182388,163.662842 213.048218,165.011826 
	C220.687302,166.321945 228.228668,161.919403 235.912918,163.926529 
	C229.011810,168.833221 221.273788,167.557663 213.352325,167.906815 
z"/>
<path fill="#2F0D1D" opacity="1.000000" stroke="none" 
	d="
M184.431366,49.986809 
	C185.737289,49.103676 187.342789,47.713570 189.154724,47.348740 
	C199.733231,45.218773 210.385437,43.902645 221.585907,45.913574 
	C229.839310,45.799301 236.359512,49.188335 242.364441,53.735928 
	C243.548813,54.632854 244.134964,56.319691 244.996185,57.939064 
	C236.905930,50.376068 226.829254,47.036087 215.955643,47.207321 
	C205.567368,47.370911 195.201843,48.979855 184.431366,49.986809 
z"/>
<path fill="#41061A" opacity="1.000000" stroke="none" 
	d="
M279.300110,107.718185 
	C279.355377,99.639999 279.355377,91.914635 279.355377,84.189262 
	C279.618042,84.054504 279.880737,83.919739 280.143402,83.784973 
	C281.068146,87.225655 282.450409,90.620026 282.804474,94.118462 
	C283.270782,98.726311 283.032959,103.419823 282.858398,108.067505 
	C282.817291,109.161789 281.818237,110.220093 281.259888,111.294952 
	C280.588196,110.220306 279.916504,109.145653 279.300110,107.718185 
z"/>
<path fill="#4B071F" opacity="1.000000" stroke="none" 
	d="
M200.458557,39.529671 
	C198.700241,39.483231 197.297012,39.357250 195.893768,39.231270 
	C195.802719,38.655010 195.711670,38.078751 195.620621,37.502491 
	C198.565674,37.005138 201.496063,36.381042 204.458984,36.038074 
	C209.836975,35.415543 215.227661,34.855793 220.628403,34.509521 
	C221.960754,34.424099 223.398361,35.159012 224.683594,35.744888 
	C224.999741,35.889004 225.123169,37.411594 224.969406,37.480167 
	C223.700455,38.046013 222.360107,38.733353 221.013794,38.796627 
	C214.285034,39.112846 207.547867,39.250000 200.458557,39.529671 
z"/>
<path fill="#911238" opacity="1.000000" stroke="none" 
	d="
M396.637909,229.664322 
	C394.739105,230.011688 392.406830,231.022491 390.068787,231.035889 
	C369.505798,231.153900 348.941742,231.099564 328.378021,231.084808 
	C319.827881,231.078674 319.411774,230.571091 320.801605,221.565125 
	C320.781097,229.916702 320.840607,229.992676 329.306793,229.980698 
	C351.605103,229.949158 373.903442,229.904617 396.637909,229.664322 
z"/>
<path fill="#911238" opacity="1.000000" stroke="none" 
	d="
M52.721649,212.683304 
	C45.997021,213.050919 39.011402,213.173111 32.029327,213.065292 
	C28.454031,213.010101 26.841900,214.366043 26.975571,218.048447 
	C27.144371,222.698624 27.147041,227.362885 26.998690,232.013977 
	C26.880697,235.713257 28.539862,236.993790 32.101524,236.947784 
	C41.744446,236.823120 51.389996,236.901855 61.498871,236.933868 
	C61.598351,237.269867 61.234528,237.834381 60.868412,237.835876 
	C49.456806,237.882385 38.044979,237.873993 26.321255,237.873993 
	C26.321255,229.261078 26.321255,221.033249 26.321255,212.342636 
	C35.046085,212.342636 43.754108,212.342636 52.721649,212.683304 
z"/>
<path fill="#5C0C27" opacity="1.000000" stroke="none" 
	d="
M370.371460,201.959702 
	C372.044189,201.297607 374.129486,200.050385 376.252716,199.981949 
	C384.022247,199.731491 391.808868,200.009338 399.578247,199.756805 
	C401.193481,199.704285 402.762665,198.234344 404.353058,197.417633 
	C402.771484,196.576797 401.209900,195.055176 399.605011,195.008087 
	C390.676453,194.746078 381.737366,194.841736 372.682098,194.592178 
	C383.658112,194.234344 394.753876,194.099365 405.849670,193.964386 
	C406.270782,196.124222 406.691864,198.284073 407.399872,201.915527 
	C394.494568,201.915527 382.647980,201.915527 370.371460,201.959702 
z"/>
<path fill="#911238" opacity="1.000000" stroke="none" 
	d="
M314.266846,237.107483 
	C341.786896,236.758560 369.462891,236.827866 397.611298,236.942261 
	C397.054901,237.331039 396.026611,237.973022 394.997223,237.974777 
	C368.944305,238.019196 342.891235,238.000580 316.838257,237.966248 
	C316.032898,237.965195 315.227905,237.678970 314.266846,237.107483 
z"/>
<path fill="#B42A54" opacity="1.000000" stroke="none" 
	d="
M170.255127,157.231522 
	C194.392944,156.849930 218.680222,156.886429 243.426758,156.950409 
	C242.867874,157.319153 241.850403,157.956039 240.831512,157.958282 
	C218.006470,158.008453 195.181290,157.991592 172.356140,157.968475 
	C171.705521,157.967819 171.055084,157.760544 170.255127,157.231522 
z"/>
<path fill="#6B1633" opacity="1.000000" stroke="none" 
	d="
M26.629826,194.083847 
	C26.727587,198.721161 29.244055,200.074448 33.685932,200.002945 
	C39.905643,199.902832 46.134113,200.346497 52.707123,200.795883 
	C45.380867,201.333679 37.704681,201.883621 30.032434,201.833252 
	C25.817873,201.805573 24.593914,198.810425 26.629826,194.083847 
z"/>
<path fill="#6B1633" opacity="1.000000" stroke="none" 
	d="
M357.910736,199.945786 
	C356.698578,200.285385 355.495331,200.882141 354.272858,200.924637 
	C342.582581,201.330795 330.890015,201.693176 319.195282,201.926056 
	C317.536224,201.959091 315.862030,201.231705 314.467468,200.353760 
	C314.973450,199.782623 315.206726,199.714020 315.763794,199.683243 
	C316.744904,199.735519 317.402222,199.749985 318.519714,199.815445 
	C324.626984,199.821289 330.274048,199.776138 336.393982,199.752380 
	C343.176727,199.729630 349.486664,199.685471 356.150208,199.686066 
	C356.972778,199.802475 357.441772,199.874130 357.910736,199.945786 
z"/>
<path fill="#9D2A4A" opacity="1.000000" stroke="none" 
	d="
M307.408020,237.008789 
	C307.276611,234.823090 307.796143,232.557220 307.818024,230.286560 
	C307.931244,218.538574 307.917236,206.789352 307.966919,194.583801 
	C308.569031,194.652222 309.665741,195.183548 309.659576,195.701706 
	C309.503357,208.801117 309.247314,221.899506 308.932404,234.996246 
	C308.916718,235.648102 308.212830,236.283401 307.408020,237.008789 
z"/>
<path fill="#781535" opacity="1.000000" stroke="none" 
	d="
M218.083649,96.443314 
	C217.710571,95.061913 216.969269,93.226120 216.942856,91.380104 
	C216.764420,78.910965 216.737305,66.439651 216.627426,53.507286 
	C217.062180,54.634472 217.921631,56.219543 217.937454,57.812996 
	C218.063858,70.535828 218.030518,83.260254 218.083649,96.443314 
z"/>
<path fill="#9D2A4A" opacity="1.000000" stroke="none" 
	d="
M314.016144,193.923279 
	C314.713287,193.616760 315.410858,193.042160 316.107483,193.043365 
	C329.495850,193.066559 342.884125,193.157318 356.136414,193.572571 
	C342.909332,194.029953 329.818268,194.148895 316.564819,194.261932 
	C316.183441,194.265686 315.970886,194.307724 315.325592,194.275085 
	C314.596344,194.086426 314.306244,194.004852 314.016144,193.923279 
z"/>
<path fill="#A72247" opacity="1.000000" stroke="none" 
	d="
M248.742126,194.295471 
	C249.124283,208.132507 249.103149,222.138336 249.049881,236.617737 
	C248.697922,236.565308 248.097672,236.038437 248.099289,235.513382 
	C248.141083,221.830231 248.245346,208.147247 248.742126,194.295471 
z"/>
<path fill="#94173D" opacity="1.000000" stroke="none" 
	d="
M249.163269,237.323273 
	C253.720673,237.578964 255.247711,235.406113 255.040344,230.689362 
	C254.712952,223.243362 254.938324,215.770920 255.031265,208.310959 
	C255.044357,207.259567 254.259399,204.576904 257.036072,206.819809 
	C256.649261,209.785980 256.097931,212.470093 256.051300,215.162949 
	C255.923264,222.557175 256.007141,229.955063 256.007141,237.649414 
	C253.535385,237.649414 251.477264,237.649414 249.163269,237.323273 
z"/>
<path fill="#41061A" opacity="1.000000" stroke="none" 
	d="
M316.727203,194.267822 
	C329.818268,194.148895 342.909332,194.029953 356.460114,193.829208 
	C356.993774,193.985916 357.067749,194.224442 356.820435,194.805298 
	C355.654205,195.135574 354.809204,195.123505 353.498962,195.110168 
	C350.208435,195.112152 347.381348,195.182648 344.558258,195.106323 
	C335.280457,194.855530 326.004120,194.551437 316.727203,194.267822 
z"/>
<path fill="#781535" opacity="1.000000" stroke="none" 
	d="
M299.514221,206.980499 
	C299.657990,206.296127 300.179565,205.778000 300.701141,205.259888 
	C301.137451,206.229187 301.935638,207.192261 301.952393,208.168762 
	C302.077301,215.453201 302.038239,222.740372 302.071442,230.026566 
	C302.082001,232.344528 302.155579,234.662201 302.192749,237.438385 
	C301.789154,236.245575 301.081726,234.600113 301.051147,232.942200 
	C300.920532,225.861267 301.052063,218.775650 300.936462,211.694214 
	C300.911621,210.173111 300.256683,208.662308 299.514221,206.980499 
z"/>
<path fill="#9B2143" opacity="1.000000" stroke="none" 
	d="
M405.581604,193.644562 
	C394.753876,194.099365 383.658112,194.234344 372.203857,194.607727 
	C371.395905,194.905014 370.946411,194.963928 370.156036,195.026199 
	C370.728119,194.357559 371.639343,193.104858 372.554382,193.102066 
	C383.473785,193.068619 394.393738,193.221024 405.581604,193.644562 
z"/>
<path fill="#6B1633" opacity="1.000000" stroke="none" 
	d="
M124.967880,200.264435 
	C134.413391,199.987183 144.197723,199.936188 153.979080,200.083527 
	C155.876755,200.112106 157.762787,200.914200 159.817596,201.717056 
	C150.399704,201.717407 140.817902,201.372437 131.237488,200.992950 
	C129.257599,200.914520 127.282814,200.707596 124.967880,200.264435 
z"/>
<path fill="#94173D" opacity="1.000000" stroke="none" 
	d="
M350.689331,212.780426 
	C338.937592,213.175323 326.989838,213.182404 314.588593,213.227661 
	C314.747223,212.865402 315.360596,212.114365 315.971375,212.116440 
	C327.478882,212.155273 338.986053,212.283264 350.689331,212.780426 
z"/>
<path fill="#94173D" opacity="1.000000" stroke="none" 
	d="
M196.051804,43.429684 
	C195.587280,43.476368 195.122772,43.523052 194.039001,43.467510 
	C193.230652,43.248173 193.041565,43.131062 192.852478,43.013947 
	C193.366837,42.671661 193.883011,42.028500 194.395264,42.031620 
	C204.134766,42.090950 213.873825,42.226460 223.833252,42.713512 
	C223.886749,43.107658 223.719925,43.134441 222.884109,43.152664 
	C220.808304,43.172611 219.401474,43.201122 217.994644,43.229637 
	C214.969543,43.168179 211.944443,43.106720 208.009064,43.037247 
	C203.416473,43.162720 199.734131,43.296200 196.051804,43.429684 
z"/>
<path fill="#94173D" opacity="1.000000" stroke="none" 
	d="
M125.261398,237.164459 
	C136.437073,236.803482 147.787369,236.849777 159.609619,236.944611 
	C159.726135,237.293060 159.369293,237.856583 159.015488,237.854675 
	C147.822144,237.794189 136.629120,237.678802 125.261398,237.164459 
z"/>
<path fill="#A32659" opacity="1.000000" stroke="none" 
	d="
M158.965759,193.692230 
	C148.460464,194.051834 137.677139,194.062973 126.422546,194.051666 
	C126.812912,193.692963 127.675636,193.062149 128.535995,193.065384 
	C138.586777,193.102982 148.637192,193.235992 158.965759,193.692230 
z"/>
<path fill="#B42A54" opacity="1.000000" stroke="none" 
	d="
M186.717743,114.074341 
	C186.924988,124.595787 186.763885,135.370575 186.403336,146.507278 
	C186.252396,136.022018 186.300903,125.174850 186.717743,114.074341 
z"/>
<path fill="#2F0D1D" opacity="1.000000" stroke="none" 
	d="
M245.757385,46.764160 
	C239.244843,45.812412 232.440201,44.625210 225.304108,43.268303 
	C231.803543,44.241962 238.634399,45.385330 245.757385,46.764160 
z"/>
<path fill="#AC1940" opacity="1.000000" stroke="none" 
	d="
M321.470184,220.167587 
	C322.653900,219.811951 324.286499,218.992828 325.932617,218.964691 
	C334.002350,218.826859 342.075684,218.899506 350.622986,218.910889 
	C349.590820,219.288284 348.087738,219.945847 346.575378,219.967957 
	C338.359955,220.088104 330.142212,220.051422 321.470184,220.167587 
z"/>
<path fill="#81213F" opacity="1.000000" stroke="none" 
	d="
M167.442474,230.095596 
	C167.290588,220.978104 167.564713,211.789062 167.905457,202.109192 
	C168.311157,207.628006 168.844727,213.635406 168.914307,219.648178 
	C168.954285,223.102295 168.242096,226.565125 167.442474,230.095596 
z"/>
<path fill="#9B2143" opacity="1.000000" stroke="none" 
	d="
M54.786072,193.674393 
	C45.961819,194.066010 36.910690,194.086502 27.387386,194.059357 
	C30.073997,193.678848 33.229614,193.106140 36.392242,193.064423 
	C42.445786,192.984528 48.503315,193.206543 54.786072,193.674393 
z"/>
<path fill="#AC1940" opacity="1.000000" stroke="none" 
	d="
M371.177246,219.319000 
	C378.006012,218.940186 385.071625,218.836685 392.131409,218.993576 
	C393.765778,219.029907 395.380402,219.955643 397.345276,220.609680 
	C392.026093,220.497009 386.366180,220.235321 380.705109,220.001175 
	C377.608368,219.873077 374.509766,219.791565 371.177246,219.319000 
z"/>
<path fill="#94173D" opacity="1.000000" stroke="none" 
	d="
M84.036324,237.315338 
	C92.940689,236.929291 102.109581,236.904800 111.760658,236.931747 
	C109.374649,237.322601 106.508881,237.921692 103.637749,237.948593 
	C97.193527,238.008957 90.746643,237.785080 84.036324,237.315338 
z"/>
<path fill="#911238" opacity="1.000000" stroke="none" 
	d="
M398.710358,212.654724 
	C390.139587,212.851059 381.364441,212.666428 372.257172,212.213043 
	C380.785339,212.054123 389.645691,212.163940 398.710358,212.654724 
z"/>
<path fill="#81213F" opacity="1.000000" stroke="none" 
	d="
M199.694702,203.199753 
	C200.069565,211.713348 200.111252,220.503510 200.092041,229.776367 
	C199.694687,227.748749 199.091156,225.240219 199.074081,222.727722 
	C199.030457,216.311539 199.248260,209.893555 199.694702,203.199753 
z"/>
<path fill="#6B1633" opacity="1.000000" stroke="none" 
	d="
M209.470276,201.752609 
	C209.566071,201.458801 210.050980,200.599106 210.514954,200.610245 
	C217.864014,200.786850 225.210419,201.075195 232.769028,201.653198 
	C225.270309,201.842911 217.559982,201.717377 209.470276,201.752609 
z"/>
<path fill="#9D2A4A" opacity="1.000000" stroke="none" 
	d="
M109.690353,193.666443 
	C101.597946,194.036636 93.251259,194.066376 84.435371,194.054565 
	C87.315125,193.675034 90.660072,193.111084 94.013962,193.051620 
	C99.151428,192.960556 104.295059,193.217026 109.690353,193.666443 
z"/>
<path fill="#94173D" opacity="1.000000" stroke="none" 
	d="
M108.388062,230.090057 
	C100.849976,230.255371 92.854523,230.370865 84.479523,230.343750 
	C92.043549,230.147507 99.987122,230.093872 108.388062,230.090057 
z"/>
<path fill="#A32659" opacity="1.000000" stroke="none" 
	d="
M232.737305,193.640015 
	C224.909073,194.036087 216.838699,194.077362 208.289169,194.072693 
	C211.290207,193.697006 214.765732,193.168427 218.251785,193.086029 
	C222.995377,192.973953 227.747009,193.202667 232.737305,193.640015 
z"/>
<path fill="#9D2A4A" opacity="1.000000" stroke="none" 
	d="
M206.934021,227.432404 
	C206.843704,219.820282 206.774948,211.745331 206.934235,203.310272 
	C207.093384,210.956635 207.024475,218.963104 206.934021,227.432404 
z"/>
<path fill="#2F0D1D" opacity="1.000000" stroke="none" 
	d="
M170.637360,49.037483 
	C167.866165,51.233932 164.746506,53.499599 161.295319,55.879097 
	C164.072144,53.697521 167.180496,51.402111 170.637360,49.037483 
z"/>
<path fill="#350D1B" opacity="1.000000" stroke="none" 
	d="
M230.072083,36.958939 
	C232.033569,37.586571 233.995071,38.214207 235.956558,38.841839 
	C235.824203,39.287964 235.691833,39.734093 235.559479,40.180218 
	C232.800552,39.415768 230.041626,38.651321 227.464020,37.533577 
	C228.454269,37.106503 229.263168,37.032722 230.072083,36.958939 
z"/>
<path fill="#24111E" opacity="1.000000" stroke="none" 
	d="
M260.072876,220.802887 
	C261.035614,220.680145 261.887268,220.803207 262.738953,220.926270 
	C262.393433,221.715790 262.047913,222.505295 261.702393,223.294800 
	C261.122162,222.546097 260.541962,221.797394 260.072876,220.802887 
z"/>
<path fill="#2F0D1D" opacity="1.000000" stroke="none" 
	d="
M192.494354,43.150673 
	C193.041565,43.131062 193.230652,43.248173 193.697845,43.548161 
	C190.556992,44.262482 187.138062,44.793926 183.375580,45.212212 
	C186.066788,44.495167 189.101517,43.891277 192.494354,43.150673 
z"/>
<path fill="#280E1C" opacity="1.000000" stroke="none" 
	d="
M353.964233,195.111420 
	C354.809204,195.123505 355.654205,195.135574 356.927979,195.164124 
	C357.555817,196.535812 357.754852,197.891037 357.932312,199.596024 
	C357.441772,199.874130 356.972778,199.802475 356.128418,199.371460 
	C355.156769,197.711884 354.560516,196.411652 353.964233,195.111420 
z"/>
<path fill="#2F0D1D" opacity="1.000000" stroke="none" 
	d="
M178.455902,52.791733 
	C179.835419,51.883698 181.543945,50.952805 183.624542,50.032875 
	C182.259399,50.952179 180.522171,51.860527 178.455902,52.791733 
z"/>
<path fill="#17161F" opacity="1.000000" stroke="none" 
	d="
M318.175354,205.890472 
	C317.858856,206.324371 317.471588,206.596481 317.084351,206.868576 
	C316.968323,206.607803 316.852295,206.347031 316.736298,206.086258 
	C317.192413,205.967072 317.648499,205.847870 318.175354,205.890472 
z"/>
<path fill="#41061A" opacity="1.000000" stroke="none" 
	d="
M313.993042,194.362549 
	C314.306244,194.004852 314.596344,194.086426 315.228088,194.600067 
	C315.426086,195.681061 315.282440,196.330017 315.148956,197.233124 
	C315.168640,197.656601 315.178101,197.825912 315.237854,198.268402 
	C315.338776,198.909546 315.389404,199.277481 315.440033,199.645432 
	C315.206726,199.714020 314.973450,199.782623 314.392090,199.961426 
	C314.019348,198.315033 313.994629,196.558441 313.993042,194.362549 
z"/>
<path fill="#2F0D1D" opacity="1.000000" stroke="none" 
	d="
M174.671631,48.005035 
	C173.913208,48.316631 172.799500,48.638794 171.333954,48.970455 
	C172.093536,48.658501 173.204926,48.337051 174.671631,48.005035 
z"/>
<path fill="#4B071F" opacity="1.000000" stroke="none" 
	d="
M229.855484,36.729603 
	C229.263168,37.032722 228.454269,37.106503 227.245544,37.255379 
	C227.776779,37.053741 228.707825,36.777004 229.855484,36.729603 
z"/>
<path fill="#2F0D1D" opacity="1.000000" stroke="none" 
	d="
M177.665115,47.097698 
	C177.190231,47.346771 176.396454,47.622501 175.290741,47.955780 
	C175.767944,47.717007 176.557098,47.420681 177.665115,47.097698 
z"/>
<path fill="#2F0D1D" opacity="1.000000" stroke="none" 
	d="
M248.899948,47.839752 
	C248.323090,47.763611 247.449631,47.510757 246.267776,47.113701 
	C246.840698,47.200680 247.722031,47.431862 248.899948,47.839752 
z"/>
<path fill="#911238" opacity="1.000000" stroke="none" 
	d="
M371.991943,211.719757 
	C371.391663,211.543610 370.698059,211.072083 369.994751,210.255188 
	C370.622864,210.414673 371.260712,210.919525 371.991943,211.719757 
z"/>
<path fill="#94173D" opacity="1.000000" stroke="none" 
	d="
M257.014801,207.317200 
	C257.611450,207.553299 258.317474,208.095947 259.030182,209.007446 
	C258.399323,208.792099 257.761749,208.207916 257.014801,207.317200 
z"/>
<path fill="#2F0D1D" opacity="1.000000" stroke="none" 
	d="
M180.744598,46.176926 
	C180.490768,46.351696 179.941849,46.585953 179.105774,46.912407 
	C179.362259,46.748543 179.905884,46.492481 180.744598,46.176926 
z"/>
<path fill="#6B1633" opacity="1.000000" stroke="none" 
	d="
M160.975128,203.295471 
	C161.272385,203.501236 161.608963,204.031158 161.987396,204.881683 
	C161.690979,204.674728 161.352722,204.147171 160.975128,203.295471 
z"/>
<path fill="#2F0D1D" opacity="1.000000" stroke="none" 
	d="
M158.744568,58.118530 
	C158.717316,58.231319 158.449951,58.468719 157.953461,58.849754 
	C157.984390,58.743313 158.244431,58.493229 158.744568,58.118530 
z"/>
<path fill="#2F0D1D" opacity="1.000000" stroke="none" 
	d="
M159.813354,57.123386 
	C159.810074,57.232277 159.594910,57.465271 159.177979,57.833000 
	C159.166824,57.713268 159.375229,57.473186 159.813354,57.123386 
z"/>
<path fill="#911238" opacity="1.000000" stroke="none" 
	d="
M369.996521,209.781219 
	C369.785309,209.871078 369.482513,209.715668 369.100372,209.305313 
	C369.315674,209.212250 369.610291,209.374115 369.996521,209.781219 
z"/>
<path fill="#2F0D1D" opacity="1.000000" stroke="none" 
	d="
M160.804260,56.114677 
	C160.807327,56.232430 160.588715,56.470375 160.166473,56.848274 
	C160.140656,56.715282 160.347229,56.464165 160.804260,56.114677 
z"/>
<path fill="#6B1633" opacity="1.000000" stroke="none" 
	d="
M53.064941,201.140961 
	C53.164974,201.144150 53.373619,201.338699 53.710808,201.705734 
	C53.567402,201.758072 53.345470,201.576126 53.064941,201.140961 
z"/>
<path fill="#6B1633" opacity="1.000000" stroke="none" 
	d="
M160.009033,202.297379 
	C160.244553,202.201584 160.555481,202.366928 160.933640,202.803070 
	C160.695389,202.902084 160.389908,202.730301 160.009033,202.297379 
z"/>
<path fill="#000000" opacity="1.000000" stroke="none" 
	d="
M218.154922,102.021515 
	C222.980865,101.994667 227.807434,101.907448 232.632584,101.957184 
	C237.941650,102.011894 242.413849,104.118248 245.477814,108.419617 
	C252.983200,118.956093 253.949753,130.257477 248.366928,141.900558 
	C244.245895,150.495010 232.459579,155.516693 223.428513,152.460205 
	C221.605301,151.843170 220.421616,149.336533 218.803528,146.917664 
	C218.446381,144.838562 218.040207,143.542862 218.040268,142.247177 
	C218.040878,128.838623 218.107010,115.430069 218.154922,102.021515 
z"/>
<path fill="#781535" opacity="1.000000" stroke="none" 
	d="
M217.902618,102.181396 
	C218.107010,115.430069 218.040878,128.838623 218.040268,142.247177 
	C218.040207,143.542862 218.446381,144.838562 218.703278,146.555054 
	C218.147751,145.490997 217.054688,144.012222 217.036484,142.520325 
	C216.882538,129.897217 216.911682,117.271690 216.939896,104.647003 
	C216.941620,103.877899 217.402878,103.109833 217.902618,102.181396 
z"/>
<path fill="#2F0D1D" opacity="1.000000" stroke="none" 
	d="
M218.317596,43.340469 
	C219.401474,43.201122 220.808304,43.172611 222.635834,43.203560 
	C222.831024,43.442623 222.598267,43.612247 222.179993,43.893326 
	C220.881348,43.826946 219.760941,43.639126 218.317596,43.340469 
z"/>
<path fill="#000000" opacity="1.000000" stroke="none" 
	d="
M59.944706,219.910568 
	C64.483856,223.125107 64.743256,224.744324 60.784683,229.647003 
	C51.427853,229.986664 42.736317,229.986023 34.146774,229.638062 
	C34.248768,226.310959 34.248768,223.331146 34.248768,219.910568 
	C43.164433,219.910568 51.554569,219.910568 59.944706,219.910568 
z"/>
<path fill="#AC1940" opacity="1.000000" stroke="none" 
	d="
M59.655380,219.605408 
	C51.554569,219.910568 43.164433,219.910568 34.248768,219.910568 
	C34.248768,223.331146 34.248768,226.310959 33.935837,229.620041 
	C33.622910,229.949310 33.199425,229.951447 33.199425,229.951447 
	C32.341431,218.895233 32.341667,218.856644 43.480988,218.925232 
	C48.776581,218.957825 54.071068,219.169617 59.655380,219.605408 
z"/>
<path fill="#911238" opacity="1.000000" stroke="none" 
	d="
M33.489277,230.241974 
	C33.199425,229.951447 33.622910,229.949310 33.833843,229.967346 
	C42.736317,229.986023 51.427853,229.986664 60.587784,229.914856 
	C58.355389,230.256424 55.655933,231.006531 52.953541,231.017258 
	C46.562813,231.042618 40.170689,230.716522 33.489277,230.241974 
z"/>
<path fill="#2F0D1D" opacity="1.000000" stroke="none" 
	d="
M196.435547,43.523933 
	C199.734131,43.296200 203.416473,43.162720 207.558563,43.090645 
	C204.285324,43.307430 200.552307,43.462807 196.435547,43.523933 
z"/>
<path fill="#12181E" opacity="1.000000" stroke="none" 
	d="
M315.763794,199.683243 
	C315.389404,199.277481 315.338776,198.909546 315.260071,198.142654 
	C315.251068,197.482849 315.220001,197.227921 315.138763,196.978958 
	C315.282440,196.330017 315.426086,195.681061 315.667236,194.707138 
	C315.970886,194.307724 316.183441,194.265686 316.564819,194.261932 
	C326.004120,194.551437 335.280457,194.855530 344.558258,195.106323 
	C347.381348,195.182648 350.208435,195.112152 353.498962,195.110153 
	C354.560516,196.411652 355.156769,197.711884 355.774811,199.326721 
	C349.486664,199.685471 343.176727,199.729630 336.009125,199.641159 
	C329.454163,199.593842 323.756866,199.679138 318.059570,199.764435 
	C317.402222,199.749985 316.744904,199.735519 315.763794,199.683243 
z"/>
<path fill="#280E1C" opacity="1.000000" stroke="none" 
	d="
M318.519714,199.815460 
	C323.756866,199.679138 329.454163,199.593842 335.536316,199.619766 
	C330.274048,199.776138 324.626984,199.821289 318.519714,199.815460 
z"/>
<path fill="#280E1C" opacity="1.000000" stroke="none" 
	d="
M315.148956,197.233124 
	C315.220001,197.227921 315.251068,197.482849 315.209778,197.869461 
	C315.178101,197.825912 315.168640,197.656601 315.148956,197.233124 
z"/>
</svg>